Kablammov0.13-B.ufo
<glyph name="numbersign" format="2">
  <advance width="743"/>
  <unicode hex="0023"/>
  <outline>
    <contour>
      <point x="263" y="674" type="curve" smooth="yes"/>
      <point x="216" y="473"/>
      <point x="171" y="273"/>
      <point x="129" y="72" type="curve" smooth="yes"/>
      <point x="121" y="34"/>
      <point x="127" y="14"/>
      <point x="147" y="10" type="curve" smooth="yes"/>
      <point x="172" y="5"/>
      <point x="191" y="17"/>
      <point x="202" y="55" type="curve" smooth="yes"/>
      <point x="258" y="253"/>
      <point x="312" y="451"/>
      <point x="362" y="650" type="curve" smooth="yes"/>
      <point x="372" y="691"/>
      <point x="360" y="714"/>
      <point x="326" y="723" type="curve" smooth="yes"/>
      <point x="296" y="731"/>
      <point x="273" y="715"/>
    </contour>
    <contour>
      <point x="543" y="692" type="curve" smooth="yes"/>
      <point x="489" y="471"/>
      <point x="440" y="252"/>
      <point x="396" y="29" type="curve" smooth="yes"/>
      <point x="388" y="-12"/>
      <point x="403" y="-31"/>
      <point x="431" y="-37" type="curve" smooth="yes"/>
      <point x="456" y="-42"/>
      <point x="478" y="-28"/>
      <point x="485" y="7" type="curve" smooth="yes"/>
      <point x="531" y="230"/>
      <point x="580" y="449"/>
      <point x="622" y="670" type="curve" smooth="yes"/>
      <point x="631" y="717"/>
      <point x="615" y="733"/>
      <point x="593" y="736" type="curve" smooth="yes"/>
      <point x="572" y="738"/>
      <point x="552" y="729"/>
    </contour>
    <contour>
      <point x="150" y="512" type="curve" smooth="yes"/>
      <point x="116" y="511"/>
      <point x="101" y="498"/>
      <point x="101" y="473" type="curve" smooth="yes"/>
      <point x="100" y="448"/>
      <point x="116" y="433"/>
      <point x="152" y="432" type="curve" smooth="yes"/>
      <point x="317" y="429"/>
      <point x="485" y="428"/>
      <point x="654" y="428" type="curve" smooth="yes"/>
      <point x="692" y="429"/>
      <point x="713" y="449"/>
      <point x="711" y="481" type="curve" smooth="yes"/>
      <point x="709" y="514"/>
      <point x="694" y="527"/>
      <point x="654" y="526" type="curve" smooth="yes"/>
      <point x="487" y="524"/>
      <point x="319" y="518"/>
    </contour>
    <contour>
      <point x="69" y="303" type="curve" smooth="yes"/>
      <point x="28" y="304"/>
      <point x="10" y="287"/>
      <point x="7" y="261" type="curve" smooth="yes"/>
      <point x="5" y="229"/>
      <point x="19" y="207"/>
      <point x="59" y="205" type="curve" smooth="yes"/>
      <point x="263" y="196"/>
      <point x="466" y="194"/>
      <point x="667" y="194" type="curve" smooth="yes"/>
      <point x="704" y="194"/>
      <point x="720" y="208"/>
      <point x="719" y="236" type="curve" smooth="yes"/>
      <point x="718" y="262"/>
      <point x="705" y="279"/>
      <point x="673" y="281" type="curve" smooth="yes"/>
      <point x="474" y="291"/>
      <point x="273" y="297"/>
    </contour>
  </outline>
</glyph>
<glyph name="dollar" format="2">
  <advance width="468"/>
  <unicode hex="0024"/>
  <outline>
    <contour>
      <point x="223" y="16" type="curve" smooth="yes"/>
      <point x="344" y="16"/>
      <point x="455" y="55"/>
      <point x="455" y="213" type="curve" smooth="yes"/>
      <point x="455" y="319"/>
      <point x="373" y="373"/>
      <point x="246" y="437" type="curve" smooth="yes"/>
      <point x="162" y="480"/>
      <point x="147" y="504"/>
      <point x="147" y="542" type="curve" smooth="yes"/>
      <point x="147" y="574"/>
      <point x="176" y="605"/>
      <point x="242" y="605" type="curve" smooth="yes"/>
      <point x="338" y="605"/>
      <point x="374" y="565"/>
      <point x="408" y="565" type="curve" smooth="yes"/>
      <point x="427" y="565"/>
      <point x="436" y="580"/>
      <point x="436" y="599" type="curve" smooth="yes"/>
      <point x="436" y="637"/>
      <point x="347" y="686"/>
      <point x="253" y="686" type="curve" smooth="yes"/>
      <point x="118" y="686"/>
      <point x="30" y="615"/>
      <point x="30" y="492" type="curve" smooth="yes"/>
      <point x="30" y="370"/>
      <point x="95" y="320"/>
      <point x="228" y="278" type="curve" smooth="yes"/>
      <point x="331" y="246"/>
      <point x="366" y="221"/>
      <point x="366" y="179" type="curve" smooth="yes"/>
      <point x="366" y="122"/>
      <point x="308" y="92"/>
      <point x="237" y="92" type="curve" smooth="yes"/>
      <point x="129" y="92"/>
      <point x="71" y="199"/>
      <point x="30" y="199" type="curve" smooth="yes"/>
      <point x="8" y="199"/>
      <point x="-4" y="186"/>
      <point x="-4" y="164" type="curve" smooth="yes"/>
      <point x="-4" y="96"/>
      <point x="122" y="16"/>
    </contour>
    <contour>
      <point x="129" y="387" type="curve" smooth="yes"/>
      <point x="109" y="387"/>
      <point x="93" y="403"/>
      <point x="93" y="423" type="curve" smooth="yes"/>
      <point x="93" y="442"/>
      <point x="109" y="459"/>
      <point x="129" y="459" type="curve" smooth="yes"/>
      <point x="148" y="459"/>
      <point x="165" y="442"/>
      <point x="165" y="423" type="curve" smooth="yes"/>
      <point x="165" y="403"/>
      <point x="148" y="387"/>
    </contour>
    <contour>
      <point x="218" y="331" type="curve" smooth="yes"/>
      <point x="197" y="331"/>
      <point x="181" y="347"/>
      <point x="181" y="368" type="curve" smooth="yes"/>
      <point x="181" y="388"/>
      <point x="197" y="406"/>
      <point x="218" y="406" type="curve" smooth="yes"/>
      <point x="238" y="406"/>
      <point x="256" y="388"/>
      <point x="256" y="368" type="curve" smooth="yes"/>
      <point x="256" y="347"/>
      <point x="238" y="331"/>
    </contour>
    <contour>
      <point x="290" y="45" type="line"/>
      <point x="320" y="-59"/>
      <point x="334" y="-78"/>
      <point x="362" y="-67" type="curve" smooth="yes"/>
      <point x="389" y="-56"/>
      <point x="387" y="-29"/>
      <point x="343" y="69" type="curve"/>
    </contour>
    <contour>
      <point x="80" y="101" type="line"/>
      <point x="6" y="-3"/>
      <point x="-2" y="-31"/>
      <point x="18" y="-44" type="curve" smooth="yes"/>
      <point x="37" y="-57"/>
      <point x="60" y="-47"/>
      <point x="126" y="74" type="curve"/>
    </contour>
    <contour>
      <point x="197" y="168" type="curve" smooth="yes"/>
      <point x="187" y="114"/>
      <point x="160" y="-43"/>
      <point x="152" y="-94" type="curve" smooth="yes"/>
      <point x="146" y="-136"/>
      <point x="158" y="-149"/>
      <point x="177" y="-151" type="curve" smooth="yes"/>
      <point x="195" y="-153"/>
      <point x="206" y="-143"/>
      <point x="213" y="-103" type="curve" smooth="yes"/>
      <point x="222" y="-54"/>
      <point x="249" y="109"/>
      <point x="256" y="157" type="curve" smooth="yes"/>
      <point x="260" y="187"/>
      <point x="253" y="199"/>
      <point x="234" y="202" type="curve" smooth="yes"/>
      <point x="218" y="205"/>
      <point x="203" y="198"/>
    </contour>
    <contour>
      <point x="315" y="524" type="curve" smooth="yes"/>
      <point x="328" y="597"/>
      <point x="343" y="684"/>
      <point x="351" y="745" type="curve" smooth="yes"/>
      <point x="356" y="784"/>
      <point x="349" y="798"/>
      <point x="332" y="801" type="curve" smooth="yes"/>
      <point x="313" y="804"/>
      <point x="299" y="795"/>
      <point x="291" y="757" type="curve" smooth="yes"/>
      <point x="279" y="695"/>
      <point x="264" y="610"/>
      <point x="253" y="535" type="curve" smooth="yes"/>
      <point x="249" y="509"/>
      <point x="263" y="496"/>
      <point x="277" y="493" type="curve" smooth="yes"/>
      <point x="293" y="490"/>
      <point x="310" y="494"/>
    </contour>
  </outline>
</glyph>
<glyph name="quotesingle" format="2">
  <advance width="203"/>
  <unicode hex="0027"/>
  <outline>
    <contour>
      <point x="51" y="408" type="curve" smooth="yes"/>
      <point x="54" y="382"/>
      <point x="65" y="363"/>
      <point x="99" y="363" type="curve" smooth="yes"/>
      <point x="129" y="363"/>
      <point x="149" y="376"/>
      <point x="153" y="415" type="curve" smooth="yes"/>
      <point x="160" y="481"/>
      <point x="167" y="554"/>
      <point x="171" y="617" type="curve" smooth="yes"/>
      <point x="176" y="690"/>
      <point x="147" y="716"/>
      <point x="105" y="716" type="curve" smooth="yes"/>
      <point x="70" y="716"/>
      <point x="39" y="691"/>
      <point x="40" y="634" type="curve" smooth="yes"/>
      <point x="41" y="597"/>
      <point x="43" y="562"/>
      <point x="45" y="520" type="curve"/>
      <point x="106" y="527"/>
      <point x="122" y="527"/>
      <point x="123" y="493" type="curve" smooth="yes"/>
      <point x="124" y="461"/>
      <point x="105" y="458"/>
      <point x="47" y="452" type="curve"/>
      <point x="48" y="437"/>
      <point x="50" y="421"/>
    </contour>
  </outline>
</glyph>
<glyph name="parenleft" format="2">
  <advance width="367"/>
  <unicode hex="0028"/>
  <outline>
    <contour>
      <point x="77" y="307" type="curve" smooth="yes"/>
      <point x="77" y="82"/>
      <point x="174" y="-68"/>
      <point x="254" y="-112" type="curve" smooth="yes"/>
      <point x="314" y="-145"/>
      <point x="355" y="-78"/>
      <point x="308" y="-42" type="curve" smooth="yes"/>
      <point x="222" y="26"/>
      <point x="172" y="147"/>
      <point x="172" y="302" type="curve" smooth="yes"/>
      <point x="172" y="475"/>
      <point x="220" y="603"/>
      <point x="328" y="738" type="curve" smooth="yes"/>
      <point x="380" y="802"/>
      <point x="296" y="878"/>
      <point x="231" y="799" type="curve" smooth="yes"/>
      <point x="133" y="679"/>
      <point x="77" y="497"/>
    </contour>
    <contour>
      <point x="138" y="321" type="curve" smooth="yes"/>
      <point x="116" y="318"/>
      <point x="100" y="306"/>
      <point x="103" y="277" type="curve" smooth="yes"/>
      <point x="105" y="247"/>
      <point x="121" y="244"/>
      <point x="142" y="245" type="curve" smooth="yes"/>
      <point x="159" y="245"/>
      <point x="177" y="246"/>
      <point x="197" y="249" type="curve" smooth="yes"/>
      <point x="282" y="256"/>
      <point x="311" y="261"/>
      <point x="307" y="299" type="curve" smooth="yes"/>
      <point x="303" y="333"/>
      <point x="284" y="331"/>
      <point x="187" y="325" type="curve" smooth="yes"/>
      <point x="171" y="324"/>
      <point x="154" y="323"/>
    </contour>
    <contour>
      <point x="99" y="90" type="curve" smooth="yes"/>
      <point x="36" y="58"/>
      <point x="25" y="39"/>
      <point x="34" y="17" type="curve" smooth="yes"/>
      <point x="43" y="-6"/>
      <point x="63" y="-10"/>
      <point x="117" y="12" type="curve" smooth="yes"/>
      <point x="177" y="37"/>
      <point x="209" y="52"/>
      <point x="242" y="69" type="curve" smooth="yes"/>
      <point x="294" y="95"/>
      <point x="313" y="113"/>
      <point x="301" y="141" type="curve" smooth="yes"/>
      <point x="291" y="164"/>
      <point x="263" y="162"/>
      <point x="223" y="146" type="curve" smooth="yes"/>
      <point x="185" y="131"/>
      <point x="137" y="109"/>
    </contour>
    <contour>
      <point x="175" y="603" type="curve" smooth="yes"/>
      <point x="163" y="607"/>
      <point x="150" y="592"/>
      <point x="146" y="574" type="curve" smooth="yes"/>
      <point x="141" y="553"/>
      <point x="143" y="544"/>
      <point x="160" y="538" type="curve" smooth="yes"/>
      <point x="164" y="536"/>
      <point x="169" y="536"/>
      <point x="174" y="534" type="curve" smooth="yes"/>
      <point x="183" y="531"/>
      <point x="196" y="543"/>
      <point x="203" y="563" type="curve" smooth="yes"/>
      <point x="208" y="578"/>
      <point x="211" y="591"/>
      <point x="197" y="597" type="curve" smooth="yes"/>
      <point x="188" y="602"/>
      <point x="182" y="603"/>
    </contour>
  </outline>
</glyph>
<glyph name="asterisk" format="2">
  <advance width="539"/>
  <unicode hex="002A"/>
  <outline>
    <contour>
      <point x="111" y="508" type="curve" smooth="yes"/>
      <point x="140" y="505"/>
      <point x="184" y="506"/>
      <point x="210" y="501" type="curve" smooth="yes"/>
      <point x="225" y="498"/>
      <point x="229" y="485"/>
      <point x="219" y="478" type="curve" smooth="yes"/>
      <point x="177" y="444"/>
      <point x="129" y="412"/>
      <point x="86" y="375" type="curve" smooth="yes"/>
      <point x="54" y="348"/>
      <point x="51" y="311"/>
      <point x="72" y="290" type="curve" smooth="yes"/>
      <point x="97" y="264"/>
      <point x="129" y="268"/>
      <point x="157" y="299" type="curve" smooth="yes"/>
      <point x="191" y="338"/>
      <point x="222" y="385"/>
      <point x="260" y="430" type="curve" smooth="yes"/>
      <point x="269" y="441"/>
      <point x="280" y="439"/>
      <point x="283" y="425" type="curve" smooth="yes"/>
      <point x="291" y="391"/>
      <point x="292" y="357"/>
      <point x="298" y="326" type="curve" smooth="yes"/>
      <point x="307" y="280"/>
      <point x="345" y="265"/>
      <point x="381" y="283" type="curve" smooth="yes"/>
      <point x="419" y="302"/>
      <point x="428" y="341"/>
      <point x="401" y="374" type="curve" smooth="yes"/>
      <point x="380" y="401"/>
      <point x="357" y="420"/>
      <point x="334" y="451" type="curve" smooth="yes"/>
      <point x="325" y="463"/>
      <point x="329" y="473"/>
      <point x="344" y="473" type="curve" smooth="yes"/>
      <point x="377" y="473"/>
      <point x="402" y="462"/>
      <point x="443" y="465" type="curve" smooth="yes"/>
      <point x="470" y="466"/>
      <point x="494" y="484"/>
      <point x="489" y="522" type="curve" smooth="yes"/>
      <point x="484" y="559"/>
      <point x="463" y="567"/>
      <point x="432" y="561" type="curve" smooth="yes"/>
      <point x="394" y="553"/>
      <point x="372" y="537"/>
      <point x="343" y="532" type="curve" smooth="yes"/>
      <point x="329" y="530"/>
      <point x="324" y="536"/>
      <point x="326" y="548" type="curve" smooth="yes"/>
      <point x="334" y="602"/>
      <point x="354" y="660"/>
      <point x="364" y="709" type="curve" smooth="yes"/>
      <point x="374" y="757"/>
      <point x="357" y="784"/>
      <point x="316" y="787" type="curve" smooth="yes"/>
      <point x="273" y="789"/>
      <point x="247" y="765"/>
      <point x="251" y="718" type="curve" smooth="yes"/>
      <point x="254" y="672"/>
      <point x="262" y="619"/>
      <point x="264" y="563" type="curve" smooth="yes"/>
      <point x="265" y="543"/>
      <point x="252" y="533"/>
      <point x="236" y="543" type="curve" smooth="yes"/>
      <point x="207" y="562"/>
      <point x="175" y="593"/>
      <point x="155" y="608" type="curve" smooth="yes"/>
      <point x="127" y="629"/>
      <point x="83" y="627"/>
      <point x="68" y="587" type="curve" smooth="yes"/>
      <point x="54" y="549"/>
      <point x="67" y="513"/>
    </contour>
  </outline>
</glyph>
<glyph name="comma" format="2">
  <advance width="266"/>
  <unicode hex="002C"/>
  <outline>
    <contour>
      <point x="18" y="-167" type="curve" smooth="yes"/>
      <point x="-16" y="-204"/>
      <point x="42" y="-249"/>
      <point x="76" y="-217" type="curve" smooth="yes"/>
      <point x="145" y="-147"/>
      <point x="227" y="-21"/>
      <point x="227" y="68" type="curve" smooth="yes"/>
      <point x="227" y="134"/>
      <point x="185" y="176"/>
      <point x="124" y="176" type="curve" smooth="yes"/>
      <point x="70" y="176"/>
      <point x="35" y="145"/>
      <point x="35" y="93" type="curve" smooth="yes"/>
      <point x="35" y="17"/>
      <point x="117" y="28"/>
      <point x="117" y="-3" type="curve" smooth="yes"/>
      <point x="117" y="-40"/>
      <point x="58" y="-123"/>
    </contour>
    <contour>
      <point x="151" y="-22" type="curve"/>
      <point x="135" y="-61" type="line"/>
      <point x="151" y="-73"/>
      <point x="162" y="-81"/>
      <point x="172" y="-58" type="curve" smooth="yes"/>
      <point x="179" y="-42"/>
      <point x="174" y="-34"/>
    </contour>
    <contour>
      <point x="97" y="-64" type="line" smooth="yes"/>
      <point x="25" y="-31"/>
      <point x="7" y="-30"/>
      <point x="-3" y="-50" type="curve" smooth="yes"/>
      <point x="-13" y="-69"/>
      <point x="-10" y="-90"/>
      <point x="64" y="-126" type="curve" smooth="yes"/>
      <point x="109" y="-148" type="line" smooth="yes"/>
      <point x="203" y="-194"/>
      <point x="218" y="-183"/>
      <point x="228" y="-165" type="curve" smooth="yes"/>
      <point x="237" y="-146"/>
      <point x="229" y="-125"/>
      <point x="149" y="-88" type="curve" smooth="yes"/>
    </contour>
    <contour>
      <point x="126" y="88" type="curve" smooth="yes"/>
      <point x="126" y="88"/>
      <point x="126" y="88"/>
      <point x="126" y="88" type="curve" smooth="yes"/>
      <point x="126" y="88"/>
      <point x="126" y="88"/>
      <point x="126" y="88" type="curve" smooth="yes"/>
      <point x="126" y="88"/>
      <point x="126" y="88"/>
      <point x="126" y="88" type="curve" smooth="yes"/>
      <point x="126" y="88"/>
      <point x="126" y="88"/>
    </contour>
  </outline>
</glyph>
<glyph name="one" format="2">
  <advance width="473"/>
  <unicode hex="0031"/>
  <outline>
    <contour>
      <point x="286" y="660" type="line" smooth="yes"/>
      <point x="287" y="705"/>
      <point x="272" y="719"/>
      <point x="241" y="719" type="curve" smooth="yes"/>
      <point x="225" y="719"/>
      <point x="210" y="716"/>
      <point x="78" y="692" type="curve" smooth="yes"/>
      <point x="15" y="680"/>
      <point x="40" y="588"/>
      <point x="95" y="604" type="curve" smooth="yes"/>
      <point x="163" y="624" type="line" smooth="yes"/>
      <point x="191" y="632"/>
      <point x="199" y="627"/>
      <point x="198" y="588" type="curve" smooth="yes"/>
      <point x="181" y="145" type="line" smooth="yes"/>
      <point x="180" y="107"/>
      <point x="168" y="90"/>
      <point x="140" y="87" type="curve" smooth="yes"/>
      <point x="65" y="80" type="line" smooth="yes"/>
      <point x="3" y="74"/>
      <point x="7" y="-2"/>
      <point x="63" y="-4" type="curve" smooth="yes"/>
      <point x="373" y="-14" type="line" smooth="yes"/>
      <point x="478" y="-17"/>
      <point x="487" y="183"/>
      <point x="352" y="186" type="curve" smooth="yes"/>
      <point x="310" y="187" type="line" smooth="yes"/>
      <point x="284" y="188"/>
      <point x="273" y="201"/>
      <point x="274" y="233" type="curve" smooth="yes"/>
    </contour>
    <contour>
      <point x="104" y="450" type="curve" smooth="yes"/>
      <point x="135" y="450"/>
      <point x="160" y="475"/>
      <point x="160" y="507" type="curve" smooth="yes"/>
      <point x="160" y="537"/>
      <point x="132" y="556"/>
      <point x="104" y="556" type="curve" smooth="yes"/>
      <point x="75" y="556"/>
      <point x="56" y="536"/>
      <point x="56" y="503" type="curve" smooth="yes"/>
      <point x="56" y="474"/>
      <point x="75" y="450"/>
    </contour>
    <contour>
      <point x="279" y="419" type="curve"/>
      <point x="276" y="347" type="line"/>
      <point x="276" y="347"/>
      <point x="277" y="365"/>
      <point x="278" y="386" type="curve" smooth="yes"/>
      <point x="279" y="403"/>
      <point x="279" y="419"/>
    </contour>
    <contour>
      <point x="275" y="315" type="curve"/>
      <point x="272" y="233" type="line"/>
      <point x="272" y="233"/>
      <point x="274" y="247"/>
      <point x="274" y="275" type="curve" smooth="yes"/>
      <point x="275" y="303"/>
      <point x="275" y="315"/>
    </contour>
    <contour>
      <point x="202" y="-8" type="line"/>
      <point x="197" y="53"/>
      <point x="207" y="68"/>
      <point x="228" y="70" type="curve" smooth="yes"/>
      <point x="251" y="72"/>
      <point x="263" y="50"/>
      <point x="265" y="-10" type="curve"/>
    </contour>
    <contour>
      <point x="311" y="-12" type="line"/>
      <point x="312" y="80"/>
      <point x="318" y="106"/>
      <point x="347" y="107" type="curve" smooth="yes"/>
      <point x="379" y="108"/>
      <point x="383" y="78"/>
      <point x="369" y="-14" type="curve"/>
    </contour>
    <contour>
      <point x="192" y="346" type="curve"/>
      <point x="195" y="418" type="line"/>
      <point x="195" y="418"/>
      <point x="194" y="400"/>
      <point x="193" y="379" type="curve" smooth="yes"/>
      <point x="192" y="362"/>
      <point x="192" y="346"/>
    </contour>
    <contour>
      <point x="196" y="449" type="curve"/>
      <point x="199" y="531" type="line"/>
      <point x="199" y="531"/>
      <point x="198" y="517"/>
      <point x="196" y="489" type="curve" smooth="yes"/>
      <point x="195" y="461"/>
      <point x="196" y="449"/>
    </contour>
    <contour>
      <point x="253" y="479" type="line"/>
      <point x="248" y="479" type="line" smooth="yes"/>
      <point x="206" y="479"/>
      <point x="210" y="410"/>
      <point x="253" y="418" type="curve" smooth="yes"/>
      <point x="264" y="420" type="line"/>
    </contour>
    <contour>
      <point x="234" y="667" type="curve" smooth="yes"/>
      <point x="234" y="667"/>
      <point x="234" y="667"/>
      <point x="234" y="667" type="curve" smooth="yes"/>
      <point x="234" y="667"/>
      <point x="234" y="667"/>
      <point x="234" y="667" type="curve" smooth="yes"/>
      <point x="234" y="667"/>
      <point x="234" y="667"/>
      <point x="234" y="667" type="curve" smooth="yes"/>
      <point x="234" y="667"/>
      <point x="234" y="667"/>
    </contour>
    <contour>
      <point x="219" y="482" type="line"/>
      <point x="234" y="483" type="line" smooth="yes"/>
      <point x="279" y="486"/>
      <point x="281" y="565"/>
      <point x="223" y="560" type="curve" smooth="yes"/>
      <point x="212" y="559" type="line"/>
    </contour>
    <contour>
      <point x="173" y="69" type="curve" smooth="yes"/>
      <point x="173" y="69"/>
      <point x="173" y="69"/>
      <point x="173" y="69" type="curve" smooth="yes"/>
      <point x="173" y="69"/>
      <point x="173" y="69"/>
      <point x="173" y="69" type="curve" smooth="yes"/>
      <point x="173" y="69"/>
      <point x="173" y="69"/>
      <point x="173" y="69" type="curve" smooth="yes"/>
      <point x="173" y="69"/>
      <point x="173" y="69"/>
    </contour>
  </outline>
</glyph>
<glyph name="nine" format="2">
  <advance width="515"/>
  <unicode hex="0039"/>
  <outline>
    <contour>
      <point x="19" y="483" type="curve" smooth="yes"/>
      <point x="19" y="296"/>
      <point x="203" y="306"/>
      <point x="203" y="208" type="curve" smooth="yes"/>
      <point x="203" y="166"/>
      <point x="182" y="89"/>
      <point x="182" y="30" type="curve" smooth="yes"/>
      <point x="182" y="-34"/>
      <point x="254" y="-49"/>
      <point x="305" y="30" type="curve" smooth="yes"/>
      <point x="430" y="225"/>
      <point x="495" y="384"/>
      <point x="495" y="506" type="curve" smooth="yes"/>
      <point x="495" y="626"/>
      <point x="408" y="711"/>
      <point x="261" y="711" type="curve" smooth="yes"/>
      <point x="115" y="711"/>
      <point x="19" y="631"/>
    </contour>
    <contour>
      <point x="98" y="489" type="curve" smooth="yes"/>
      <point x="98" y="586"/>
      <point x="161" y="643"/>
      <point x="255" y="643" type="curve" smooth="yes"/>
      <point x="343" y="643"/>
      <point x="411" y="588"/>
      <point x="411" y="510" type="curve" smooth="yes"/>
      <point x="411" y="429"/>
      <point x="355" y="355"/>
      <point x="248" y="355" type="curve" smooth="yes"/>
      <point x="157" y="355"/>
      <point x="98" y="408"/>
    </contour>
    <contour>
      <point x="220" y="417" type="curve" smooth="yes"/>
      <point x="249" y="417"/>
      <point x="274" y="441"/>
      <point x="274" y="476" type="curve" smooth="yes"/>
      <point x="274" y="508"/>
      <point x="247" y="534"/>
      <point x="215" y="534" type="curve" smooth="yes"/>
      <point x="184" y="534"/>
      <point x="164" y="504"/>
      <point x="164" y="476" type="curve" smooth="yes"/>
      <point x="164" y="445"/>
      <point x="189" y="417"/>
    </contour>
    <contour>
      <point x="299" y="808" type="line" smooth="yes"/>
      <point x="299" y="850"/>
      <point x="235" y="850"/>
      <point x="233" y="812" type="curve" smooth="yes"/>
      <point x="226" y="667" type="line"/>
      <point x="300" y="664" type="line"/>
    </contour>
    <contour>
      <point x="260" y="141" type="curve" smooth="yes"/>
      <point x="282" y="141"/>
      <point x="305" y="124"/>
      <point x="305" y="100" type="curve" smooth="yes"/>
      <point x="305" y="77"/>
      <point x="284" y="61"/>
      <point x="262" y="61" type="curve" smooth="yes"/>
      <point x="238" y="61"/>
      <point x="224" y="77"/>
      <point x="224" y="100" type="curve" smooth="yes"/>
      <point x="224" y="124"/>
      <point x="236" y="141"/>
    </contour>
    <contour>
      <point x="227" y="12" type="curve" smooth="yes"/>
      <point x="227" y="12"/>
      <point x="227" y="12"/>
      <point x="227" y="12" type="curve" smooth="yes"/>
      <point x="227" y="12"/>
      <point x="227" y="12"/>
      <point x="227" y="12" type="curve" smooth="yes"/>
      <point x="227" y="12"/>
      <point x="227" y="12"/>
      <point x="227" y="12" type="curve" smooth="yes"/>
      <point x="227" y="12"/>
      <point x="227" y="12"/>
    </contour>
    <contour>
      <point x="313" y="296" type="curve" smooth="yes"/>
      <point x="342" y="296"/>
      <point x="361" y="275"/>
      <point x="361" y="244" type="curve" smooth="yes"/>
      <point x="361" y="214"/>
      <point x="342" y="188"/>
      <point x="313" y="188" type="curve" smooth="yes"/>
      <point x="282" y="188"/>
      <point x="252" y="212"/>
      <point x="252" y="242" type="curve" smooth="yes"/>
      <point x="252" y="273"/>
      <point x="282" y="296"/>
    </contour>
    <contour>
      <point x="356" y="305" type="curve" smooth="yes"/>
      <point x="356" y="305"/>
      <point x="356" y="305"/>
      <point x="356" y="305" type="curve" smooth="yes"/>
      <point x="356" y="305"/>
      <point x="356" y="305"/>
      <point x="356" y="305" type="curve" smooth="yes"/>
      <point x="356" y="305"/>
      <point x="356" y="305"/>
      <point x="356" y="305" type="curve" smooth="yes"/>
      <point x="356" y="305"/>
      <point x="356" y="305"/>
    </contour>
    <contour>
      <point x="376" y="162" type="line"/>
      <point x="426" y="133" type="line" smooth="yes"/>
      <point x="469" y="108"/>
      <point x="507" y="178"/>
      <point x="458" y="202" type="curve" smooth="yes"/>
      <point x="409" y="226" type="line"/>
    </contour>
    <contour>
      <point x="219" y="185" type="line"/>
      <point x="219" y="185" type="line" smooth="yes"/>
      <point x="219" y="185"/>
      <point x="219" y="185"/>
      <point x="219" y="185" type="curve" smooth="yes"/>
      <point x="219" y="185" type="line"/>
    </contour>
  </outline>
</glyph>
<glyph name="colon" format="2">
  <advance width="276"/>
  <unicode hex="003A"/>
  <outline>
    <contour>
      <point x="132" y="-18" type="curve" smooth="yes"/>
      <point x="191" y="-18"/>
      <point x="229" y="23"/>
      <point x="229" y="83" type="curve" smooth="yes"/>
      <point x="229" y="147"/>
      <point x="198" y="193"/>
      <point x="138" y="193" type="curve" smooth="yes"/>
      <point x="77" y="193"/>
      <point x="36" y="154"/>
      <point x="36" y="88" type="curve" smooth="yes"/>
      <point x="36" y="20"/>
      <point x="71" y="-18"/>
    </contour>
    <contour>
      <point x="144" y="354" type="curve" smooth="yes"/>
      <point x="196" y="354"/>
      <point x="235" y="390"/>
      <point x="235" y="453" type="curve" smooth="yes"/>
      <point x="235" y="511"/>
      <point x="201" y="549"/>
      <point x="145" y="549" type="curve" smooth="yes"/>
      <point x="88" y="549"/>
      <point x="53" y="512"/>
      <point x="53" y="449" type="curve" smooth="yes"/>
      <point x="53" y="391"/>
      <point x="93" y="354"/>
    </contour>
    <contour>
      <point x="153" y="440" type="curve" smooth="yes"/>
      <point x="153" y="440"/>
      <point x="153" y="440"/>
      <point x="153" y="440" type="curve" smooth="yes"/>
      <point x="153" y="440"/>
      <point x="153" y="440"/>
      <point x="153" y="440" type="curve" smooth="yes"/>
      <point x="153" y="440"/>
      <point x="153" y="440"/>
      <point x="153" y="440" type="curve" smooth="yes"/>
      <point x="153" y="440"/>
      <point x="153" y="440"/>
    </contour>
    <contour>
      <point x="130" y="36" type="curve" smooth="yes"/>
      <point x="103" y="36"/>
      <point x="83" y="56"/>
      <point x="83" y="82" type="curve" smooth="yes"/>
      <point x="83" y="106"/>
      <point x="103" y="126"/>
      <point x="130" y="126" type="curve" smooth="yes"/>
      <point x="155" y="126"/>
      <point x="177" y="106"/>
      <point x="177" y="82" type="curve" smooth="yes"/>
      <point x="177" y="56"/>
      <point x="155" y="36"/>
    </contour>
  </outline>
</glyph>
<glyph name="less" format="2">
  <advance width="381"/>
  <unicode hex="003C"/>
  <outline>
    <contour>
      <point x="247" y="108" type="curve" smooth="yes"/>
      <point x="282" y="75"/>
      <point x="318" y="76"/>
      <point x="347" y="113" type="curve" smooth="yes"/>
      <point x="369" y="141"/>
      <point x="362" y="175"/>
      <point x="318" y="206" type="curve" smooth="yes"/>
      <point x="263" y="244"/>
      <point x="204" y="283"/>
      <point x="145" y="324" type="curve" smooth="yes"/>
      <point x="124" y="338"/>
      <point x="126" y="353"/>
      <point x="146" y="368" type="curve" smooth="yes"/>
      <point x="192" y="404"/>
      <point x="261" y="450"/>
      <point x="319" y="495" type="curve" smooth="yes"/>
      <point x="353" y="521"/>
      <point x="345" y="547"/>
      <point x="334" y="560" type="curve" smooth="yes"/>
      <point x="324" y="571"/>
      <point x="301" y="576"/>
      <point x="269" y="558" type="curve" smooth="yes"/>
      <point x="201" y="520"/>
      <point x="132" y="478"/>
      <point x="70" y="438" type="curve" smooth="yes"/>
      <point x="19" y="406"/>
      <point x="8" y="352"/>
      <point x="57" y="300" type="curve" smooth="yes"/>
      <point x="119" y="233"/>
      <point x="183" y="168"/>
    </contour>
  </outline>
</glyph>
<glyph name="equal" format="2">
  <advance width="438"/>
  <unicode hex="003D"/>
  <outline>
    <contour>
      <point x="109" y="426" type="curve" smooth="yes"/>
      <point x="67" y="426"/>
      <point x="56" y="400"/>
      <point x="56" y="378" type="curve" smooth="yes"/>
      <point x="56" y="355"/>
      <point x="69" y="334"/>
      <point x="109" y="334" type="curve" smooth="yes"/>
      <point x="183" y="335"/>
      <point x="264" y="337"/>
      <point x="344" y="340" type="curve" smooth="yes"/>
      <point x="383" y="341"/>
      <point x="394" y="360"/>
      <point x="393" y="380" type="curve" smooth="yes"/>
      <point x="392" y="398"/>
      <point x="383" y="417"/>
      <point x="347" y="419" type="curve" smooth="yes"/>
      <point x="283" y="423"/>
      <point x="182" y="426"/>
    </contour>
    <contour>
      <point x="102" y="250" type="curve" smooth="yes"/>
      <point x="58" y="244"/>
      <point x="42" y="223"/>
      <point x="44" y="202" type="curve" smooth="yes"/>
      <point x="47" y="178"/>
      <point x="68" y="168"/>
      <point x="111" y="170" type="curve" smooth="yes"/>
      <point x="181" y="174"/>
      <point x="275" y="182"/>
      <point x="354" y="189" type="curve" smooth="yes"/>
      <point x="399" y="193"/>
      <point x="414" y="217"/>
      <point x="411" y="242" type="curve" smooth="yes"/>
      <point x="409" y="266"/>
      <point x="394" y="285"/>
      <point x="345" y="280" type="curve" smooth="yes"/>
      <point x="271" y="272"/>
      <point x="181" y="261"/>
    </contour>
  </outline>
</glyph>
<glyph name="question" format="2">
  <advance width="470"/>
  <unicode hex="003F"/>
  <outline>
    <contour>
      <point x="295" y="216"/>
      <point x="437" y="334"/>
      <point x="437" y="474" type="curve" smooth="yes"/>
      <point x="437" y="624"/>
      <point x="351" y="683"/>
      <point x="237" y="683" type="curve" smooth="yes"/>
      <point x="131" y="683"/>
      <point x="22" y="630"/>
      <point x="22" y="584" type="curve" smooth="yes"/>
      <point x="22" y="567"/>
      <point x="33" y="559"/>
      <point x="49" y="559" type="curve" smooth="yes"/>
      <point x="95" y="559"/>
      <point x="152" y="607"/>
      <point x="227" y="607" type="curve" smooth="yes"/>
      <point x="272" y="607"/>
      <point x="294" y="588"/>
      <point x="294" y="539" type="curve" smooth="yes"/>
      <point x="294" y="465"/>
      <point x="241" y="378"/>
      <point x="136" y="315" type="curve" smooth="yes"/>
      <point x="108" y="298"/>
      <point x="101" y="286"/>
      <point x="101" y="265" type="curve" smooth="yes"/>
      <point x="101" y="240"/>
      <point x="121" y="215"/>
      <point x="163" y="215" type="curve" smooth="yes"/>
    </contour>
    <contour>
      <point x="189" y="-14" type="curve" smooth="yes"/>
      <point x="249" y="-14"/>
      <point x="278" y="13"/>
      <point x="278" y="60" type="curve" smooth="yes"/>
      <point x="278" y="107"/>
      <point x="247" y="143"/>
      <point x="195" y="143" type="curve" smooth="yes"/>
      <point x="142" y="143"/>
      <point x="103" y="115"/>
      <point x="103" y="58" type="curve" smooth="yes"/>
      <point x="103" y="15"/>
      <point x="140" y="-14"/>
    </contour>
    <contour>
      <point x="304" y="320" type="curve" smooth="yes"/>
      <point x="284" y="320"/>
      <point x="267" y="337"/>
      <point x="267" y="357" type="curve" smooth="yes"/>
      <point x="267" y="377"/>
      <point x="284" y="393"/>
      <point x="304" y="393" type="curve" smooth="yes"/>
      <point x="324" y="393"/>
      <point x="340" y="377"/>
      <point x="340" y="357" type="curve" smooth="yes"/>
      <point x="340" y="337"/>
      <point x="324" y="320"/>
    </contour>
    <contour>
      <point x="355" y="415" type="curve" smooth="yes"/>
      <point x="333" y="415"/>
      <point x="315" y="433"/>
      <point x="315" y="455" type="curve" smooth="yes"/>
      <point x="315" y="477"/>
      <point x="333" y="493"/>
      <point x="355" y="493" type="curve" smooth="yes"/>
      <point x="377" y="493"/>
      <point x="393" y="477"/>
      <point x="393" y="455" type="curve" smooth="yes"/>
      <point x="393" y="433"/>
      <point x="377" y="415"/>
    </contour>
    <contour>
      <point x="105" y="633" type="curve"/>
      <point x="170" y="653" type="line"/>
      <point x="146" y="743"/>
      <point x="132" y="765"/>
      <point x="103" y="758" type="curve" smooth="yes"/>
      <point x="75" y="750"/>
      <point x="78" y="722"/>
    </contour>
    <contour>
      <point x="116" y="594" type="line"/>
      <point x="145" y="490"/>
      <point x="157" y="487"/>
      <point x="179" y="493" type="curve" smooth="yes"/>
      <point x="203" y="500"/>
      <point x="205" y="511"/>
      <point x="179" y="616" type="curve"/>
    </contour>
    <contour>
      <point x="309" y="654" type="line"/>
      <point x="332" y="769"/>
      <point x="329" y="796"/>
      <point x="300" y="799" type="curve" smooth="yes"/>
      <point x="262" y="803"/>
      <point x="262" y="782"/>
      <point x="240" y="664" type="curve"/>
    </contour>
    <contour>
      <point x="403" y="569" type="line"/>
      <point x="481" y="615"/>
      <point x="493" y="637"/>
      <point x="472" y="664" type="curve" smooth="yes"/>
      <point x="453" y="688"/>
      <point x="425" y="675"/>
      <point x="363" y="626" type="curve"/>
    </contour>
    <contour>
      <point x="422" y="507" type="curve"/>
      <point x="420" y="439" type="line"/>
      <point x="426" y="440"/>
      <point x="431" y="449"/>
      <point x="430" y="476" type="curve" smooth="yes"/>
      <point x="429" y="501"/>
      <point x="427" y="508"/>
    </contour>
    <contour>
      <point x="383" y="357" type="curve"/>
      <point x="345" y="312" type="line"/>
      <point x="351" y="308"/>
      <point x="357" y="308"/>
      <point x="373" y="327" type="curve" smooth="yes"/>
      <point x="391" y="349"/>
      <point x="390" y="351"/>
    </contour>
    <contour>
      <point x="247" y="286" type="curve" smooth="yes"/>
      <point x="244" y="295"/>
      <point x="241" y="299"/>
      <point x="237" y="304" type="curve" smooth="yes"/>
      <point x="232" y="311"/>
      <point x="221" y="314"/>
      <point x="207" y="308" type="curve" smooth="yes"/>
      <point x="194" y="302"/>
      <point x="192" y="295"/>
      <point x="196" y="284" type="curve" smooth="yes"/>
      <point x="199" y="280"/>
      <point x="202" y="273"/>
      <point x="205" y="267" type="curve" smooth="yes"/>
      <point x="210" y="260"/>
      <point x="219" y="255"/>
      <point x="233" y="260" type="curve" smooth="yes"/>
      <point x="248" y="267"/>
      <point x="250" y="277"/>
    </contour>
  </outline>
</glyph>
<glyph name="E" format="2">
  <advance width="486"/>
  <unicode hex="0045"/>
  <unicode hex="0065"/>
  <anchor x="290" y="-46" name="bottom"/>
  <anchor x="373" y="7" name="ogonek"/>
  <anchor x="270" y="716" name="top"/>
  <outline>
    <contour>
      <point x="69" y="76" type="curve" smooth="yes"/>
      <point x="70" y="37"/>
      <point x="87" y="12"/>
      <point x="133" y="14" type="curve" smooth="yes"/>
      <point x="224" y="17"/>
      <point x="315" y="22"/>
      <point x="410" y="29" type="curve" smooth="yes"/>
      <point x="462" y="33"/>
      <point x="463" y="128"/>
      <point x="401" y="122" type="curve" smooth="yes"/>
      <point x="341" y="116"/>
      <point x="274" y="109"/>
      <point x="213" y="101" type="curve" smooth="yes"/>
      <point x="186" y="97"/>
      <point x="178" y="102"/>
      <point x="174" y="116" type="curve" smooth="yes"/>
      <point x="165" y="148"/>
      <point x="156" y="182"/>
      <point x="150" y="216" type="curve" smooth="yes"/>
      <point x="146" y="244"/>
      <point x="155" y="253"/>
      <point x="182" y="259" type="curve"/>
      <point x="186" y="260"/>
      <point x="189" y="261"/>
      <point x="193" y="262" type="curve"/>
      <point x="198" y="263"/>
      <point x="203" y="264"/>
      <point x="208" y="265" type="curve" smooth="yes"/>
      <point x="212" y="266"/>
      <point x="217" y="267"/>
      <point x="221" y="268" type="curve"/>
      <point x="226" y="269"/>
      <point x="231" y="270"/>
      <point x="236" y="271" type="curve"/>
      <point x="240" y="272"/>
      <point x="244" y="273"/>
      <point x="248" y="274" type="curve" smooth="yes"/>
      <point x="252" y="275"/>
      <point x="253" y="275"/>
      <point x="258" y="276" type="curve"/>
      <point x="270" y="279" type="line" smooth="yes"/>
      <point x="311" y="289"/>
      <point x="301" y="363"/>
      <point x="254" y="357" type="curve" smooth="yes"/>
      <point x="234" y="354"/>
      <point x="217" y="351"/>
      <point x="201" y="348" type="curve" smooth="yes"/>
      <point x="180" y="345"/>
      <point x="164" y="351"/>
      <point x="159" y="367" type="curve" smooth="yes"/>
      <point x="151" y="392"/>
      <point x="144" y="415"/>
      <point x="138" y="440" type="curve" smooth="yes"/>
      <point x="133" y="461"/>
      <point x="142" y="476"/>
      <point x="160" y="484" type="curve" smooth="yes"/>
      <point x="169" y="488"/>
      <point x="180" y="492"/>
      <point x="190" y="496" type="curve"/>
      <point x="164" y="578"/>
      <point x="162" y="604"/>
      <point x="188" y="612" type="curve" smooth="yes"/>
      <point x="211" y="619"/>
      <point x="228" y="602"/>
      <point x="252" y="523" type="curve"/>
      <point x="269" y="529"/>
      <point x="288" y="538"/>
      <point x="301" y="545" type="curve"/>
      <point x="283" y="595"/>
      <point x="281" y="615"/>
      <point x="304" y="623" type="curve" smooth="yes"/>
      <point x="325" y="630"/>
      <point x="341" y="622"/>
      <point x="356" y="569" type="curve"/>
      <point x="441" y="607"/>
      <point x="457" y="621"/>
      <point x="457" y="661" type="curve" smooth="yes"/>
      <point x="457" y="695"/>
      <point x="435" y="720"/>
      <point x="381" y="718" type="curve" smooth="yes"/>
      <point x="286" y="715"/>
      <point x="216" y="711"/>
      <point x="150" y="705" type="curve" smooth="yes"/>
      <point x="92" y="700"/>
      <point x="60" y="677"/>
      <point x="60" y="623" type="curve" smooth="yes"/>
      <point x="60" y="593"/>
      <point x="60" y="562"/>
      <point x="61" y="532" type="curve"/>
      <point x="61" y="532"/>
      <point x="61" y="532"/>
      <point x="61" y="501" type="curve"/>
      <point x="62" y="470"/>
      <point x="62" y="470"/>
      <point x="62" y="470" type="curve"/>
      <point x="62" y="444"/>
      <point x="62" y="444"/>
      <point x="62" y="444" type="curve"/>
      <point x="62" y="444"/>
      <point x="62" y="444"/>
      <point x="63" y="413" type="curve"/>
      <point x="63" y="382"/>
      <point x="63" y="382"/>
      <point x="63" y="382" type="curve"/>
      <point x="64" y="280"/>
      <point x="67" y="178"/>
    </contour>
    <contour>
      <point x="185" y="48" type="line"/>
      <point x="190" y="-72"/>
      <point x="193" y="-101"/>
      <point x="228" y="-101" type="curve" smooth="yes"/>
      <point x="266" y="-101"/>
      <point x="269" y="-77"/>
      <point x="249" y="55" type="curve"/>
    </contour>
    <contour>
      <point x="316" y="6" type="curve" smooth="yes"/>
      <point x="321" y="-42"/>
      <point x="332" y="-57"/>
      <point x="349" y="-57" type="curve" smooth="yes"/>
      <point x="371" y="-57"/>
      <point x="385" y="-37"/>
      <point x="384" y="7" type="curve" smooth="yes"/>
      <point x="383" y="56"/>
      <point x="380" y="105"/>
      <point x="375" y="154" type="curve" smooth="yes"/>
      <point x="371" y="197"/>
      <point x="363" y="218"/>
      <point x="335" y="217" type="curve" smooth="yes"/>
      <point x="313" y="217"/>
      <point x="303" y="195"/>
      <point x="305" y="154" type="curve" smooth="yes"/>
      <point x="307" y="101"/>
      <point x="311" y="53"/>
    </contour>
    <contour>
      <point x="375" y="295" type="curve" smooth="yes"/>
      <point x="401" y="295"/>
      <point x="421" y="315"/>
      <point x="421" y="342" type="curve" smooth="yes"/>
      <point x="421" y="368"/>
      <point x="401" y="388"/>
      <point x="375" y="388" type="curve" smooth="yes"/>
      <point x="348" y="388"/>
      <point x="328" y="368"/>
      <point x="328" y="342" type="curve" smooth="yes"/>
      <point x="328" y="315"/>
      <point x="348" y="295"/>
    </contour>
    <contour>
      <point x="209" y="680" type="curve" smooth="yes"/>
      <point x="209" y="676"/>
      <point x="209" y="672"/>
      <point x="210" y="668" type="curve" smooth="yes"/>
      <point x="212" y="656"/>
      <point x="219" y="651"/>
      <point x="233" y="653" type="curve" smooth="yes"/>
      <point x="249" y="655"/>
      <point x="254" y="660"/>
      <point x="254" y="671" type="curve" smooth="yes"/>
      <point x="254" y="675"/>
      <point x="254" y="681"/>
      <point x="254" y="685" type="curve" smooth="yes"/>
      <point x="253" y="695"/>
      <point x="245" y="698"/>
      <point x="230" y="697" type="curve" smooth="yes"/>
      <point x="217" y="696"/>
      <point x="209" y="690"/>
    </contour>
    <contour>
      <point x="114" y="609" type="line"/>
      <point x="98" y="612"/>
      <point x="87" y="608"/>
      <point x="85" y="593" type="curve" smooth="yes"/>
      <point x="83" y="578"/>
      <point x="90" y="572"/>
      <point x="109" y="569" type="curve"/>
    </contour>
  </outline>
</glyph>
<glyph name="F" format="2">
  <advance width="460"/>
  <unicode hex="0046"/>
  <unicode hex="0066"/>
  <anchor x="159" y="0" name="bottom"/>
  <anchor x="270" y="700" name="top"/>
  <outline>
    <contour>
      <point x="102" y="41" type="curve" smooth="yes"/>
      <point x="104" y="10"/>
      <point x="122" y="-5"/>
      <point x="141" y="-5" type="curve" smooth="yes"/>
      <point x="159" y="-5"/>
      <point x="179" y="9"/>
      <point x="183" y="34" type="curve" smooth="yes"/>
      <point x="194" y="96"/>
      <point x="200" y="158"/>
      <point x="210" y="219" type="curve" smooth="yes"/>
      <point x="215" y="248"/>
      <point x="224" y="255"/>
      <point x="257" y="248" type="curve" smooth="yes"/>
      <point x="296" y="240"/>
      <point x="333" y="223"/>
      <point x="379" y="214" type="curve" smooth="yes"/>
      <point x="438" y="203"/>
      <point x="450" y="284"/>
      <point x="403" y="296" type="curve" smooth="yes"/>
      <point x="352" y="309"/>
      <point x="299" y="314"/>
      <point x="250" y="328" type="curve" smooth="yes"/>
      <point x="220" y="337"/>
      <point x="225" y="365"/>
      <point x="257" y="369" type="curve" smooth="yes"/>
      <point x="286" y="373"/>
      <point x="313" y="371"/>
      <point x="347" y="374" type="curve" smooth="yes"/>
      <point x="402" y="380"/>
      <point x="399" y="453"/>
      <point x="340" y="450" type="curve" smooth="yes"/>
      <point x="313" y="449"/>
      <point x="292" y="443"/>
      <point x="270" y="441" type="curve" smooth="yes"/>
      <point x="249" y="439"/>
      <point x="244" y="450"/>
      <point x="245" y="475" type="curve" smooth="yes"/>
      <point x="246" y="504"/>
      <point x="249" y="534"/>
      <point x="256" y="563" type="curve" smooth="yes"/>
      <point x="259" y="575"/>
      <point x="263" y="583"/>
      <point x="270" y="590" type="curve" smooth="yes"/>
      <point x="276" y="596"/>
      <point x="283" y="601"/>
      <point x="300" y="607" type="curve" smooth="yes"/>
      <point x="344" y="622"/>
      <point x="386" y="634"/>
      <point x="422" y="647" type="curve" smooth="yes"/>
      <point x="457" y="660"/>
      <point x="465" y="677"/>
      <point x="465" y="691" type="curve" smooth="yes"/>
      <point x="465" y="711"/>
      <point x="451" y="725"/>
      <point x="419" y="722" type="curve" smooth="yes"/>
      <point x="323" y="713"/>
      <point x="228" y="698"/>
      <point x="139" y="678" type="curve" smooth="yes"/>
      <point x="97" y="669"/>
      <point x="81" y="656"/>
      <point x="78" y="623" type="curve" smooth="yes"/>
      <point x="76" y="601"/>
      <point x="76" y="583"/>
      <point x="78" y="570" type="curve"/>
      <point x="173" y="586"/>
      <point x="205" y="578"/>
      <point x="205" y="549" type="curve" smooth="yes"/>
      <point x="205" y="522"/>
      <point x="186" y="511"/>
      <point x="80" y="506" type="curve"/>
      <point x="80" y="485"/>
      <point x="81" y="463"/>
      <point x="83" y="442" type="curve"/>
      <point x="139" y="447"/>
      <point x="163" y="441"/>
      <point x="163" y="413" type="curve" smooth="yes"/>
      <point x="163" y="389"/>
      <point x="139" y="380"/>
      <point x="86" y="381" type="curve"/>
      <point x="89" y="268"/>
      <point x="94" y="155"/>
    </contour>
    <contour>
      <point x="157" y="647" type="curve" smooth="yes"/>
      <point x="157" y="647"/>
      <point x="157" y="647"/>
      <point x="157" y="647" type="curve" smooth="yes"/>
      <point x="157" y="647"/>
      <point x="157" y="647"/>
      <point x="157" y="647" type="curve" smooth="yes"/>
      <point x="157" y="647"/>
      <point x="157" y="647"/>
      <point x="157" y="647" type="curve" smooth="yes"/>
      <point x="157" y="647"/>
      <point x="157" y="647"/>
    </contour>
    <contour>
      <point x="202" y="644" type="curve" smooth="yes"/>
      <point x="202" y="644"/>
      <point x="202" y="644"/>
      <point x="202" y="644" type="curve" smooth="yes"/>
      <point x="202" y="644"/>
      <point x="202" y="644"/>
      <point x="202" y="644" type="curve" smooth="yes"/>
      <point x="202" y="644"/>
      <point x="202" y="644"/>
      <point x="202" y="644" type="curve" smooth="yes"/>
      <point x="202" y="644"/>
      <point x="202" y="644"/>
    </contour>
    <contour>
      <point x="317" y="661" type="curve" smooth="yes"/>
      <point x="317" y="661"/>
      <point x="317" y="661"/>
      <point x="317" y="661" type="curve" smooth="yes"/>
      <point x="317" y="661"/>
      <point x="317" y="661"/>
      <point x="317" y="661" type="curve" smooth="yes"/>
      <point x="317" y="661"/>
      <point x="317" y="661"/>
      <point x="317" y="661" type="curve" smooth="yes"/>
      <point x="317" y="661"/>
      <point x="317" y="661"/>
    </contour>
  </outline>
</glyph>
<glyph name="J" format="2">
  <advance width="503"/>
  <unicode hex="004A"/>
  <unicode hex="006A"/>
  <anchor x="225" y="0" name="bottom"/>
  <anchor x="237" y="718" name="top"/>
  <outline>
    <contour>
      <point x="180" y="-7" type="curve" smooth="yes"/>
      <point x="327" y="-7"/>
      <point x="446" y="73"/>
      <point x="434" y="277" type="curve" smooth="yes"/>
      <point x="427" y="397"/>
      <point x="416" y="512"/>
      <point x="402" y="622" type="curve" smooth="yes"/>
      <point x="397" y="664"/>
      <point x="381" y="688"/>
      <point x="337" y="687" type="curve" smooth="yes"/>
      <point x="251" y="685"/>
      <point x="166" y="680"/>
      <point x="82" y="672" type="curve" smooth="yes"/>
      <point x="36" y="668"/>
      <point x="13" y="660"/>
      <point x="13" y="630" type="curve" smooth="yes"/>
      <point x="13" y="595"/>
      <point x="40" y="590"/>
      <point x="92" y="594" type="curve" smooth="yes"/>
      <point x="173" y="600"/>
      <point x="236" y="609"/>
      <point x="295" y="614" type="curve" smooth="yes"/>
      <point x="321" y="616"/>
      <point x="331" y="607"/>
      <point x="330" y="583" type="curve" smooth="yes"/>
      <point x="327" y="506"/>
      <point x="320" y="430"/>
      <point x="311" y="353" type="curve" smooth="yes"/>
      <point x="302" y="279"/>
      <point x="281" y="245"/>
      <point x="220" y="216" type="curve" smooth="yes"/>
      <point x="176" y="195"/>
      <point x="118" y="171"/>
      <point x="76" y="154" type="curve" smooth="yes"/>
      <point x="42" y="140"/>
      <point x="25" y="123"/>
      <point x="25" y="91" type="curve" smooth="yes"/>
      <point x="25" y="27"/>
      <point x="90" y="-7"/>
    </contour>
    <contour>
      <point x="350" y="496" type="curve" smooth="yes"/>
      <point x="378" y="504"/>
      <point x="390" y="518"/>
      <point x="390" y="534" type="curve" smooth="yes"/>
      <point x="390" y="566"/>
      <point x="369" y="568"/>
      <point x="336" y="563" type="curve" smooth="yes"/>
      <point x="288" y="556"/>
      <point x="239" y="546"/>
      <point x="192" y="535" type="curve" smooth="yes"/>
      <point x="152" y="525"/>
      <point x="127" y="513"/>
      <point x="127" y="488" type="curve" smooth="yes"/>
      <point x="127" y="450"/>
      <point x="164" y="451"/>
      <point x="207" y="460" type="curve" smooth="yes"/>
      <point x="257" y="470"/>
      <point x="304" y="482"/>
    </contour>
    <contour>
      <point x="370" y="495" type="curve"/>
      <point x="372" y="427" type="line"/>
      <point x="475" y="425"/>
      <point x="503" y="429"/>
      <point x="503" y="464" type="curve" smooth="yes"/>
      <point x="503" y="496"/>
      <point x="485" y="504"/>
    </contour>
    <contour>
      <point x="197" y="294" type="curve" smooth="yes"/>
      <point x="229" y="294"/>
      <point x="255" y="320"/>
      <point x="255" y="352" type="curve" smooth="yes"/>
      <point x="255" y="384"/>
      <point x="229" y="410"/>
      <point x="197" y="410" type="curve" smooth="yes"/>
      <point x="165" y="410"/>
      <point x="139" y="384"/>
      <point x="139" y="352" type="curve" smooth="yes"/>
      <point x="139" y="320"/>
      <point x="165" y="294"/>
    </contour>
    <contour>
      <point x="202" y="355" type="curve" smooth="yes"/>
      <point x="202" y="355"/>
      <point x="202" y="355"/>
      <point x="202" y="355" type="curve" smooth="yes"/>
      <point x="202" y="355"/>
      <point x="202" y="355"/>
      <point x="202" y="355" type="curve" smooth="yes"/>
      <point x="202" y="355"/>
      <point x="202" y="355"/>
      <point x="202" y="355" type="curve" smooth="yes"/>
      <point x="202" y="355"/>
      <point x="202" y="355"/>
    </contour>
    <contour>
      <point x="127" y="52" type="curve" smooth="yes"/>
      <point x="110" y="52"/>
      <point x="97" y="65"/>
      <point x="97" y="82" type="curve" smooth="yes"/>
      <point x="97" y="98"/>
      <point x="110" y="110"/>
      <point x="127" y="110" type="curve" smooth="yes"/>
      <point x="144" y="110"/>
      <point x="155" y="98"/>
      <point x="155" y="82" type="curve" smooth="yes"/>
      <point x="155" y="65"/>
      <point x="144" y="52"/>
    </contour>
    <contour>
      <point x="231" y="86" type="curve" smooth="yes"/>
      <point x="213" y="86"/>
      <point x="200" y="101"/>
      <point x="200" y="118" type="curve" smooth="yes"/>
      <point x="200" y="136"/>
      <point x="213" y="149"/>
      <point x="231" y="149" type="curve" smooth="yes"/>
      <point x="250" y="149"/>
      <point x="263" y="136"/>
      <point x="263" y="118" type="curve" smooth="yes"/>
      <point x="263" y="101"/>
      <point x="250" y="86"/>
    </contour>
    <contour>
      <point x="333" y="140" type="curve" smooth="yes"/>
      <point x="315" y="140"/>
      <point x="302" y="155"/>
      <point x="302" y="172" type="curve" smooth="yes"/>
      <point x="302" y="190"/>
      <point x="315" y="203"/>
      <point x="333" y="203" type="curve" smooth="yes"/>
      <point x="352" y="203"/>
      <point x="365" y="190"/>
      <point x="365" y="172" type="curve" smooth="yes"/>
      <point x="365" y="155"/>
      <point x="352" y="140"/>
    </contour>
  </outline>
</glyph>
<glyph name="K" format="2">
  <advance width="609"/>
  <unicode hex="004B"/>
  <unicode hex="006B"/>
  <anchor x="299" y="33" name="bottom"/>
  <anchor x="300" y="670" name="top"/>
  <outline>
    <contour>
      <point x="85" y="21" type="curve" smooth="yes"/>
      <point x="86" y="-16"/>
      <point x="96" y="-40"/>
      <point x="128" y="-40" type="curve" smooth="yes"/>
      <point x="159" y="-40"/>
      <point x="168" y="-22"/>
      <point x="169" y="21" type="curve" smooth="yes"/>
      <point x="170" y="70"/>
      <point x="168" y="117"/>
      <point x="171" y="165" type="curve" smooth="yes"/>
      <point x="174" y="219"/>
      <point x="189" y="236"/>
      <point x="225" y="236" type="curve" smooth="yes"/>
      <point x="256" y="236"/>
      <point x="276" y="227"/>
      <point x="317" y="186" type="curve" smooth="yes"/>
      <point x="484" y="19"/>
      <point x="504" y="-3"/>
      <point x="534" y="-3" type="curve" smooth="yes"/>
      <point x="560" y="-3"/>
      <point x="578" y="16"/>
      <point x="578" y="40" type="curve" smooth="yes"/>
      <point x="578" y="72"/>
      <point x="557" y="95"/>
      <point x="394" y="258" type="curve" smooth="yes"/>
      <point x="375" y="277"/>
      <point x="372" y="293"/>
      <point x="386" y="319" type="curve" smooth="yes"/>
      <point x="437" y="417"/>
      <point x="488" y="501"/>
      <point x="533" y="586" type="curve" smooth="yes"/>
      <point x="561" y="640"/>
      <point x="566" y="667"/>
      <point x="552" y="681" type="curve" smooth="yes"/>
      <point x="536" y="698"/>
      <point x="508" y="694"/>
      <point x="467" y="659" type="curve" smooth="yes"/>
      <point x="388" y="593"/>
      <point x="302" y="510"/>
      <point x="221" y="445" type="curve" smooth="yes"/>
      <point x="195" y="424"/>
      <point x="179" y="431"/>
      <point x="179" y="458" type="curve" smooth="yes"/>
      <point x="179" y="518"/>
      <point x="181" y="578"/>
      <point x="181" y="640" type="curve" smooth="yes"/>
      <point x="181" y="683"/>
      <point x="169" y="709"/>
      <point x="130" y="709" type="curve" smooth="yes"/>
      <point x="93" y="709"/>
      <point x="78" y="684"/>
      <point x="78" y="641" type="curve" smooth="yes"/>
      <point x="76" y="433"/>
      <point x="79" y="227"/>
    </contour>
    <contour>
      <point x="509" y="251" type="curve" smooth="yes"/>
      <point x="538" y="251"/>
      <point x="564" y="276"/>
      <point x="564" y="308" type="curve" smooth="yes"/>
      <point x="564" y="337"/>
      <point x="538" y="363"/>
      <point x="509" y="363" type="curve" smooth="yes"/>
      <point x="477" y="363"/>
      <point x="452" y="337"/>
      <point x="452" y="308" type="curve" smooth="yes"/>
      <point x="452" y="276"/>
      <point x="477" y="251"/>
    </contour>
    <contour>
      <point x="490" y="634" type="curve" smooth="yes"/>
      <point x="479" y="642"/>
      <point x="463" y="635"/>
      <point x="454" y="624" type="curve" smooth="yes"/>
      <point x="445" y="613"/>
      <point x="443" y="600"/>
      <point x="453" y="589" type="curve" smooth="yes"/>
      <point x="458" y="583"/>
      <point x="463" y="579"/>
      <point x="469" y="575" type="curve" smooth="yes"/>
      <point x="484" y="565"/>
      <point x="499" y="568"/>
      <point x="510" y="580" type="curve" smooth="yes"/>
      <point x="520" y="591"/>
      <point x="523" y="605"/>
      <point x="509" y="619" type="curve" smooth="yes"/>
      <point x="503" y="625"/>
      <point x="496" y="630"/>
    </contour>
    <contour>
      <point x="412" y="573" type="line"/>
      <point x="406" y="578"/>
      <point x="400" y="578"/>
      <point x="390" y="568" type="curve" smooth="yes"/>
      <point x="380" y="558"/>
      <point x="380" y="552"/>
      <point x="386" y="546" type="curve"/>
    </contour>
    <contour>
      <point x="55" y="127" type="curve" smooth="yes"/>
      <point x="15" y="122"/>
      <point x="0" y="111"/>
      <point x="0" y="91" type="curve" smooth="yes"/>
      <point x="0" y="68"/>
      <point x="17" y="58"/>
      <point x="60" y="60" type="curve" smooth="yes"/>
      <point x="99" y="61"/>
      <point x="140" y="63"/>
      <point x="181" y="68" type="curve" smooth="yes"/>
      <point x="221" y="72"/>
      <point x="244" y="79"/>
      <point x="244" y="106" type="curve" smooth="yes"/>
      <point x="244" y="134"/>
      <point x="221" y="142"/>
      <point x="176" y="138" type="curve" smooth="yes"/>
      <point x="136" y="135"/>
      <point x="95" y="132"/>
    </contour>
    <contour>
      <point x="131" y="484" type="curve" smooth="yes"/>
      <point x="143" y="484"/>
      <point x="154" y="495"/>
      <point x="154" y="508" type="curve" smooth="yes"/>
      <point x="154" y="520"/>
      <point x="143" y="531"/>
      <point x="131" y="531" type="curve" smooth="yes"/>
      <point x="118" y="531"/>
      <point x="107" y="520"/>
      <point x="107" y="508" type="curve" smooth="yes"/>
      <point x="107" y="495"/>
      <point x="118" y="484"/>
    </contour>
    <contour>
      <point x="130" y="590" type="curve" smooth="yes"/>
      <point x="141" y="590"/>
      <point x="151" y="600"/>
      <point x="151" y="613" type="curve" smooth="yes"/>
      <point x="151" y="624"/>
      <point x="141" y="634"/>
      <point x="130" y="634" type="curve" smooth="yes"/>
      <point x="117" y="634"/>
      <point x="107" y="624"/>
      <point x="107" y="613" type="curve" smooth="yes"/>
      <point x="107" y="600"/>
      <point x="117" y="590"/>
    </contour>
    <contour>
      <point x="131" y="535" type="curve" smooth="yes"/>
      <point x="144" y="535"/>
      <point x="154" y="546"/>
      <point x="154" y="558" type="curve" smooth="yes"/>
      <point x="154" y="571"/>
      <point x="144" y="581"/>
      <point x="131" y="581" type="curve" smooth="yes"/>
      <point x="119" y="581"/>
      <point x="108" y="571"/>
      <point x="108" y="558" type="curve" smooth="yes"/>
      <point x="108" y="546"/>
      <point x="119" y="535"/>
    </contour>
    <contour>
      <point x="233" y="284" type="curve" smooth="yes"/>
      <point x="205" y="284"/>
      <point x="182" y="305"/>
      <point x="182" y="335" type="curve" smooth="yes"/>
      <point x="182" y="362"/>
      <point x="205" y="385"/>
      <point x="233" y="385" type="curve" smooth="yes"/>
      <point x="262" y="385"/>
      <point x="283" y="362"/>
      <point x="283" y="335" type="curve" smooth="yes"/>
      <point x="283" y="305"/>
      <point x="262" y="284"/>
    </contour>
    <contour>
      <point x="335" y="378" type="curve" smooth="yes"/>
      <point x="312" y="378"/>
      <point x="294" y="396"/>
      <point x="294" y="419" type="curve" smooth="yes"/>
      <point x="294" y="442"/>
      <point x="312" y="460"/>
      <point x="335" y="460" type="curve" smooth="yes"/>
      <point x="358" y="460"/>
      <point x="376" y="442"/>
      <point x="376" y="419" type="curve" smooth="yes"/>
      <point x="376" y="396"/>
      <point x="358" y="378"/>
    </contour>
  </outline>
</glyph>
<glyph name="O" format="2">
  <advance width="644"/>
  <unicode hex="004F"/>
  <unicode hex="006F"/>
  <anchor x="307" y="0" name="bottom"/>
  <anchor x="355" y="707" name="top"/>
  <outline>
    <contour>
      <point x="324" y="-21" type="curve" smooth="yes"/>
      <point x="506" y="-21"/>
      <point x="604" y="129"/>
      <point x="604" y="367" type="curve" smooth="yes"/>
      <point x="604" y="586"/>
      <point x="497" y="697"/>
      <point x="346" y="697" type="curve" smooth="yes"/>
      <point x="143" y="697"/>
      <point x="40" y="539"/>
      <point x="40" y="327" type="curve" smooth="yes"/>
      <point x="40" y="107"/>
      <point x="142" y="-21"/>
    </contour>
    <contour>
      <point x="346" y="168" type="curve" smooth="yes"/>
      <point x="230" y="168"/>
      <point x="164" y="247"/>
      <point x="164" y="407" type="curve" smooth="yes"/>
      <point x="164" y="522"/>
      <point x="219" y="631"/>
      <point x="345" y="631" type="curve" smooth="yes"/>
      <point x="464" y="631"/>
      <point x="527" y="522"/>
      <point x="527" y="398" type="curve" smooth="yes"/>
      <point x="527" y="247"/>
      <point x="455" y="168"/>
    </contour>
    <contour>
      <point x="374" y="129" type="curve" smooth="yes"/>
      <point x="398" y="129"/>
      <point x="414" y="113"/>
      <point x="414" y="89" type="curve" smooth="yes"/>
      <point x="414" y="67"/>
      <point x="398" y="51"/>
      <point x="374" y="51" type="curve" smooth="yes"/>
      <point x="352" y="51"/>
      <point x="336" y="67"/>
      <point x="336" y="89" type="curve" smooth="yes"/>
      <point x="336" y="113"/>
      <point x="352" y="129"/>
    </contour>
    <contour>
      <point x="257" y="131" type="curve" smooth="yes"/>
      <point x="281" y="131"/>
      <point x="300" y="112"/>
      <point x="300" y="86" type="curve" smooth="yes"/>
      <point x="300" y="62"/>
      <point x="281" y="43"/>
      <point x="257" y="43" type="curve" smooth="yes"/>
      <point x="231" y="43"/>
      <point x="212" y="62"/>
      <point x="212" y="86" type="curve" smooth="yes"/>
      <point x="212" y="112"/>
      <point x="231" y="131"/>
    </contour>
    <contour>
      <point x="163" y="200" type="curve" smooth="yes"/>
      <point x="186" y="200"/>
      <point x="202" y="184"/>
      <point x="202" y="161" type="curve" smooth="yes"/>
      <point x="202" y="139"/>
      <point x="186" y="123"/>
      <point x="163" y="123" type="curve" smooth="yes"/>
      <point x="141" y="123"/>
      <point x="125" y="139"/>
      <point x="125" y="161" type="curve" smooth="yes"/>
      <point x="125" y="184"/>
      <point x="141" y="200"/>
    </contour>
    <contour>
      <point x="503" y="563" type="curve" smooth="yes"/>
      <point x="514" y="576"/>
      <point x="511" y="593"/>
      <point x="496" y="606" type="curve" smooth="yes"/>
      <point x="480" y="620"/>
      <point x="468" y="619"/>
      <point x="453" y="604" type="curve" smooth="yes"/>
      <point x="429" y="580"/>
      <point x="407" y="554"/>
      <point x="375" y="516" type="curve" smooth="yes"/>
      <point x="347" y="483"/>
      <point x="341" y="460"/>
      <point x="360" y="446" type="curve" smooth="yes"/>
      <point x="376" y="434"/>
      <point x="396" y="443"/>
      <point x="426" y="475" type="curve" smooth="yes"/>
      <point x="451" y="501"/>
      <point x="477" y="532"/>
    </contour>
    <contour>
      <point x="321" y="627" type="curve" smooth="yes"/>
      <point x="318" y="648"/>
      <point x="298" y="657"/>
      <point x="280" y="655" type="curve" smooth="yes"/>
      <point x="260" y="653"/>
      <point x="245" y="642"/>
      <point x="248" y="623" type="curve" smooth="yes"/>
      <point x="251" y="605"/>
      <point x="254" y="588"/>
      <point x="258" y="570" type="curve" smooth="yes"/>
      <point x="267" y="530"/>
      <point x="280" y="519"/>
      <point x="299" y="521" type="curve" smooth="yes"/>
      <point x="320" y="523"/>
      <point x="328" y="535"/>
      <point x="326" y="577" type="curve" smooth="yes"/>
      <point x="325" y="596"/>
      <point x="323" y="612"/>
    </contour>
    <contour>
      <point x="137" y="433" type="curve" smooth="yes"/>
      <point x="119" y="435"/>
      <point x="108" y="419"/>
      <point x="106" y="400" type="curve" smooth="yes"/>
      <point x="103" y="381"/>
      <point x="110" y="360"/>
      <point x="129" y="358" type="curve" smooth="yes"/>
      <point x="161" y="354"/>
      <point x="192" y="349"/>
      <point x="224" y="348" type="curve" smooth="yes"/>
      <point x="255" y="347"/>
      <point x="271" y="354"/>
      <point x="273" y="378" type="curve" smooth="yes"/>
      <point x="274" y="396"/>
      <point x="266" y="409"/>
      <point x="233" y="417" type="curve" smooth="yes"/>
      <point x="202" y="424"/>
      <point x="168" y="430"/>
    </contour>
    <contour>
      <point x="96" y="304" type="curve" smooth="yes"/>
      <point x="87" y="300"/>
      <point x="86" y="282"/>
      <point x="91" y="267" type="curve" smooth="yes"/>
      <point x="96" y="252"/>
      <point x="107" y="240"/>
      <point x="120" y="248" type="curve" smooth="yes"/>
      <point x="124" y="251"/>
      <point x="129" y="253"/>
      <point x="133" y="256" type="curve" smooth="yes"/>
      <point x="147" y="265"/>
      <point x="150" y="282"/>
      <point x="144" y="295" type="curve" smooth="yes"/>
      <point x="139" y="308"/>
      <point x="125" y="317"/>
      <point x="107" y="309" type="curve" smooth="yes"/>
      <point x="103" y="307"/>
      <point x="100" y="306"/>
    </contour>
    <contour>
      <point x="157" y="572" type="curve" smooth="yes"/>
      <point x="147" y="572"/>
      <point x="138" y="563"/>
      <point x="138" y="552" type="curve" smooth="yes"/>
      <point x="138" y="542"/>
      <point x="147" y="534"/>
      <point x="157" y="534" type="curve" smooth="yes"/>
      <point x="167" y="534"/>
      <point x="176" y="542"/>
      <point x="176" y="552" type="curve" smooth="yes"/>
      <point x="176" y="563"/>
      <point x="167" y="572"/>
    </contour>
    <contour>
      <point x="549" y="426" type="curve" smooth="yes"/>
      <point x="524" y="424"/>
      <point x="499" y="421"/>
      <point x="474" y="417" type="curve" smooth="yes"/>
      <point x="441" y="411"/>
      <point x="427" y="399"/>
      <point x="431" y="374" type="curve" smooth="yes"/>
      <point x="435" y="351"/>
      <point x="453" y="345"/>
      <point x="480" y="348" type="curve" smooth="yes"/>
      <point x="508" y="351"/>
      <point x="537" y="356"/>
      <point x="567" y="363" type="curve" smooth="yes"/>
      <point x="581" y="366"/>
      <point x="584" y="384"/>
      <point x="580" y="401" type="curve" smooth="yes"/>
      <point x="576" y="416"/>
      <point x="565" y="427"/>
    </contour>
    <contour>
      <point x="509" y="190" type="curve" smooth="yes"/>
      <point x="502" y="198"/>
      <point x="491" y="197"/>
      <point x="485" y="193" type="curve" smooth="yes"/>
      <point x="479" y="189"/>
      <point x="477" y="182"/>
      <point x="482" y="175" type="curve" smooth="yes"/>
      <point x="485" y="171"/>
      <point x="488" y="167"/>
      <point x="491" y="163" type="curve" smooth="yes"/>
      <point x="496" y="156"/>
      <point x="508" y="160"/>
      <point x="514" y="166" type="curve" smooth="yes"/>
      <point x="519" y="171"/>
      <point x="520" y="177"/>
      <point x="516" y="182" type="curve" smooth="yes"/>
      <point x="514" y="185"/>
      <point x="511" y="187"/>
    </contour>
  </outline>
</glyph>
<glyph name="P" format="2">
  <advance width="555"/>
  <unicode hex="0050"/>
  <unicode hex="0070"/>
  <anchor x="128" y="0" name="bottom"/>
  <anchor x="262" y="701" name="top"/>
  <outline>
    <contour>
      <point x="228" y="445" type="curve" smooth="yes"/>
      <point x="160" y="583"/>
      <point x="160" y="594"/>
      <point x="177" y="611" type="curve" smooth="yes"/>
      <point x="183" y="617"/>
      <point x="196" y="621"/>
      <point x="215" y="621" type="curve" smooth="yes"/>
      <point x="371" y="621"/>
      <point x="428" y="571"/>
      <point x="430" y="448" type="curve" smooth="yes"/>
      <point x="432" y="342"/>
      <point x="393" y="295"/>
      <point x="341" y="295" type="curve" smooth="yes"/>
      <point x="321" y="295"/>
      <point x="310" y="298"/>
      <point x="300" y="308" type="curve" smooth="yes"/>
      <point x="294" y="314"/>
      <point x="288" y="324"/>
    </contour>
    <contour>
      <point x="92" y="33" type="curve" smooth="yes"/>
      <point x="95" y="-17"/>
      <point x="109" y="-44"/>
      <point x="139" y="-44" type="curve" smooth="yes"/>
      <point x="166" y="-44"/>
      <point x="186" y="-33"/>
      <point x="203" y="6" type="curve" smooth="yes"/>
      <point x="226" y="58"/>
      <point x="235" y="96"/>
      <point x="258" y="147" type="curve" smooth="yes"/>
      <point x="288" y="213"/>
      <point x="309" y="220"/>
      <point x="356" y="225" type="curve" smooth="yes"/>
      <point x="394" y="230"/>
      <point x="422" y="238"/>
      <point x="456" y="272" type="curve" smooth="yes"/>
      <point x="488" y="304"/>
      <point x="511" y="357"/>
      <point x="511" y="456" type="curve" smooth="yes"/>
      <point x="511" y="533"/>
      <point x="494" y="590"/>
      <point x="455" y="629" type="curve" smooth="yes"/>
      <point x="399" y="684"/>
      <point x="341" y="690"/>
      <point x="180" y="691" type="curve" smooth="yes"/>
      <point x="133" y="692"/>
      <point x="104" y="688"/>
      <point x="84" y="668" type="curve" smooth="yes"/>
      <point x="69" y="653"/>
      <point x="64" y="626"/>
      <point x="66" y="572" type="curve" smooth="yes"/>
      <point x="70" y="423"/>
      <point x="80" y="214"/>
    </contour>
    <contour>
      <point x="447" y="311" type="curve" smooth="yes"/>
      <point x="444" y="313"/>
      <point x="440" y="316"/>
      <point x="437" y="318" type="curve" smooth="yes"/>
      <point x="428" y="326"/>
      <point x="412" y="318"/>
      <point x="404" y="307" type="curve" smooth="yes"/>
      <point x="394" y="295"/>
      <point x="391" y="279"/>
      <point x="401" y="271" type="curve" smooth="yes"/>
      <point x="404" y="269"/>
      <point x="408" y="266"/>
      <point x="411" y="264" type="curve" smooth="yes"/>
      <point x="421" y="257"/>
      <point x="436" y="263"/>
      <point x="445" y="274" type="curve" smooth="yes"/>
      <point x="456" y="285"/>
      <point x="460" y="302"/>
    </contour>
    <contour>
      <point x="485" y="605" type="curve" smooth="yes"/>
      <point x="450" y="588"/>
      <point x="415" y="570"/>
      <point x="380" y="549" type="curve" smooth="yes"/>
      <point x="349" y="531"/>
      <point x="327" y="513"/>
      <point x="338" y="490" type="curve" smooth="yes"/>
      <point x="349" y="468"/>
      <point x="376" y="476"/>
      <point x="408" y="490" type="curve" smooth="yes"/>
      <point x="448" y="507"/>
      <point x="486" y="526"/>
      <point x="524" y="545" type="curve" smooth="yes"/>
      <point x="562" y="565"/>
      <point x="580" y="586"/>
      <point x="566" y="611" type="curve" smooth="yes"/>
      <point x="554" y="633"/>
      <point x="527" y="627"/>
    </contour>
    <contour>
      <point x="160" y="124" type="curve" smooth="yes"/>
      <point x="157" y="124"/>
      <point x="154" y="124"/>
      <point x="151" y="124" type="curve" smooth="yes"/>
      <point x="142" y="124"/>
      <point x="137" y="118"/>
      <point x="137" y="94" type="curve" smooth="yes"/>
      <point x="137" y="68"/>
      <point x="143" y="60"/>
      <point x="155" y="60" type="curve" smooth="yes"/>
      <point x="158" y="60"/>
      <point x="161" y="60"/>
      <point x="164" y="60" type="curve" smooth="yes"/>
      <point x="172" y="60"/>
      <point x="176" y="64"/>
      <point x="176" y="93" type="curve" smooth="yes"/>
      <point x="176" y="114"/>
      <point x="171" y="124"/>
    </contour>
    <contour>
      <point x="180" y="283" type="curve" smooth="yes"/>
      <point x="154" y="283"/>
      <point x="135" y="302"/>
      <point x="135" y="328" type="curve" smooth="yes"/>
      <point x="135" y="352"/>
      <point x="154" y="372"/>
      <point x="180" y="372" type="curve" smooth="yes"/>
      <point x="204" y="372"/>
      <point x="224" y="352"/>
      <point x="224" y="328" type="curve" smooth="yes"/>
      <point x="224" y="302"/>
      <point x="204" y="283"/>
    </contour>
    <contour>
      <point x="181" y="157" type="curve" smooth="yes"/>
      <point x="157" y="157"/>
      <point x="138" y="175"/>
      <point x="138" y="198" type="curve" smooth="yes"/>
      <point x="138" y="221"/>
      <point x="157" y="238"/>
      <point x="181" y="238" type="curve" smooth="yes"/>
      <point x="203" y="238"/>
      <point x="221" y="221"/>
      <point x="221" y="198" type="curve" smooth="yes"/>
      <point x="221" y="175"/>
      <point x="203" y="157"/>
    </contour>
  </outline>
</glyph>
<glyph name="Q" format="2">
  <advance width="627"/>
  <unicode hex="0051"/>
  <unicode hex="0071"/>
  <anchor x="258" y="0" name="bottom"/>
  <anchor x="333" y="700" name="top"/>
  <outline>
    <contour>
      <point x="155" y="24"/>
      <point x="207" y="-15"/>
      <point x="236" y="-62" type="curve" smooth="yes"/>
      <point x="261" y="-102"/>
      <point x="277" y="-149"/>
      <point x="296" y="-179" type="curve" smooth="yes"/>
      <point x="318" y="-214"/>
      <point x="356" y="-238"/>
      <point x="401" y="-207" type="curve" smooth="yes"/>
      <point x="445" y="-177"/>
      <point x="426" y="-132"/>
      <point x="401" y="-104" type="curve" smooth="yes"/>
      <point x="377" y="-77"/>
      <point x="350" y="-62"/>
      <point x="325" y="-34" type="curve" smooth="yes"/>
      <point x="307" y="-14"/>
      <point x="311" y="10"/>
      <point x="341" y="17" type="curve" smooth="yes"/>
      <point x="505" y="55"/>
      <point x="587" y="195"/>
      <point x="587" y="378" type="curve" smooth="yes"/>
      <point x="587" y="597"/>
      <point x="484" y="718"/>
      <point x="324" y="718" type="curve" smooth="yes"/>
      <point x="155" y="718"/>
      <point x="40" y="566"/>
      <point x="40" y="317" type="curve" smooth="yes"/>
      <point x="40" y="193"/>
      <point x="66" y="113"/>
      <point x="117" y="62" type="curve" smooth="yes"/>
    </contour>
    <contour>
      <point x="283" y="80" type="curve" smooth="yes"/>
      <point x="183" y="80"/>
      <point x="127" y="156"/>
      <point x="127" y="259" type="curve" smooth="yes"/>
      <point x="127" y="394"/>
      <point x="203" y="493"/>
      <point x="322" y="493" type="curve" smooth="yes"/>
      <point x="425" y="493"/>
      <point x="486" y="424"/>
      <point x="486" y="315" type="curve" smooth="yes"/>
      <point x="486" y="170"/>
      <point x="398" y="80"/>
    </contour>
    <contour>
      <point x="208" y="519" type="curve" smooth="yes"/>
      <point x="183" y="519"/>
      <point x="163" y="539"/>
      <point x="163" y="564" type="curve" smooth="yes"/>
      <point x="163" y="586"/>
      <point x="183" y="606"/>
      <point x="208" y="606" type="curve" smooth="yes"/>
      <point x="230" y="606"/>
      <point x="250" y="586"/>
      <point x="250" y="564" type="curve" smooth="yes"/>
      <point x="250" y="539"/>
      <point x="230" y="519"/>
    </contour>
    <contour>
      <point x="341" y="552" type="curve" smooth="yes"/>
      <point x="311" y="552"/>
      <point x="286" y="577"/>
      <point x="286" y="607" type="curve" smooth="yes"/>
      <point x="286" y="638"/>
      <point x="311" y="663"/>
      <point x="341" y="663" type="curve" smooth="yes"/>
      <point x="372" y="663"/>
      <point x="397" y="638"/>
      <point x="397" y="607" type="curve" smooth="yes"/>
      <point x="397" y="577"/>
      <point x="372" y="552"/>
    </contour>
    <contour>
      <point x="463" y="506" type="curve" smooth="yes"/>
      <point x="442" y="506"/>
      <point x="426" y="522"/>
      <point x="426" y="543" type="curve" smooth="yes"/>
      <point x="426" y="562"/>
      <point x="442" y="578"/>
      <point x="463" y="578" type="curve" smooth="yes"/>
      <point x="482" y="578"/>
      <point x="498" y="562"/>
      <point x="498" y="543" type="curve" smooth="yes"/>
      <point x="498" y="522"/>
      <point x="482" y="506"/>
    </contour>
    <contour>
      <point x="423" y="120" type="curve" smooth="yes"/>
      <point x="399" y="163"/>
      <point x="371" y="209"/>
      <point x="344" y="249" type="curve" smooth="yes"/>
      <point x="320" y="285"/>
      <point x="300" y="305"/>
      <point x="274" y="291" type="curve" smooth="yes"/>
      <point x="251" y="279"/>
      <point x="259" y="248"/>
      <point x="277" y="211" type="curve" smooth="yes"/>
      <point x="299" y="167"/>
      <point x="324" y="121"/>
      <point x="351" y="78" type="curve" smooth="yes"/>
      <point x="368" y="51"/>
      <point x="382" y="35"/>
      <point x="415" y="55" type="curve" smooth="yes"/>
      <point x="440" y="70"/>
      <point x="438" y="93"/>
    </contour>
    <contour>
      <point x="519" y="188" type="curve" smooth="yes"/>
      <point x="515" y="190"/>
      <point x="508" y="194"/>
      <point x="504" y="196" type="curve" smooth="yes"/>
      <point x="492" y="202"/>
      <point x="479" y="197"/>
      <point x="469" y="182" type="curve" smooth="yes"/>
      <point x="458" y="165"/>
      <point x="456" y="145"/>
      <point x="469" y="138" type="curve" smooth="yes"/>
      <point x="473" y="136"/>
      <point x="477" y="133"/>
      <point x="481" y="131" type="curve" smooth="yes"/>
      <point x="494" y="123"/>
      <point x="509" y="134"/>
      <point x="518" y="149" type="curve" smooth="yes"/>
      <point x="527" y="163"/>
      <point x="530" y="182"/>
    </contour>
  </outline>
</glyph>
<glyph name="U" format="2">
  <advance width="645"/>
  <unicode hex="0055"/>
  <unicode hex="0075"/>
  <anchor x="320" y="-46" name="bottom"/>
  <anchor x="429" y="0" name="ogonek"/>
  <anchor x="342" y="700" name="top"/>
  <outline>
    <contour>
      <point x="333" y="-2" type="curve" smooth="yes"/>
      <point x="529" y="-2"/>
      <point x="615" y="89"/>
      <point x="597" y="267" type="curve" smooth="yes"/>
      <point x="585" y="386"/>
      <point x="571" y="502"/>
      <point x="553" y="620" type="curve" smooth="yes"/>
      <point x="548" y="654"/>
      <point x="535" y="679"/>
      <point x="504" y="679" type="curve" smooth="yes"/>
      <point x="475" y="679"/>
      <point x="458" y="659"/>
      <point x="451" y="617" type="curve" smooth="yes"/>
      <point x="423" y="455"/>
      <point x="405" y="326"/>
      <point x="377" y="206" type="curve" smooth="yes"/>
      <point x="359" y="127"/>
      <point x="327" y="98"/>
      <point x="272" y="98" type="curve" smooth="yes"/>
      <point x="206" y="98"/>
      <point x="185" y="148"/>
      <point x="186" y="234" type="curve" smooth="yes"/>
      <point x="187" y="354"/>
      <point x="195" y="526"/>
      <point x="195" y="650" type="curve" smooth="yes"/>
      <point x="195" y="695"/>
      <point x="183" y="725"/>
      <point x="152" y="725" type="curve" smooth="yes"/>
      <point x="123" y="725"/>
      <point x="111" y="702"/>
      <point x="108" y="665" type="curve" smooth="yes"/>
      <point x="95" y="518"/>
      <point x="88" y="384"/>
      <point x="85" y="248" type="curve" smooth="yes"/>
      <point x="81" y="85"/>
      <point x="160" y="-2"/>
    </contour>
    <contour>
      <point x="290" y="279" type="curve" smooth="yes"/>
      <point x="319" y="279"/>
      <point x="342" y="302"/>
      <point x="342" y="331" type="curve" smooth="yes"/>
      <point x="342" y="360"/>
      <point x="319" y="383"/>
      <point x="290" y="383" type="curve" smooth="yes"/>
      <point x="261" y="383"/>
      <point x="238" y="360"/>
      <point x="238" y="331" type="curve" smooth="yes"/>
      <point x="238" y="302"/>
      <point x="261" y="279"/>
    </contour>
    <contour>
      <point x="242" y="569" type="curve" smooth="yes"/>
      <point x="190" y="568"/>
      <point x="138" y="566"/>
      <point x="86" y="563" type="curve" smooth="yes"/>
      <point x="33" y="560"/>
      <point x="11" y="556"/>
      <point x="11" y="528" type="curve" smooth="yes"/>
      <point x="11" y="501"/>
      <point x="35" y="495"/>
      <point x="92" y="496" type="curve" smooth="yes"/>
      <point x="142" y="497"/>
      <point x="192" y="499"/>
      <point x="243" y="504" type="curve" smooth="yes"/>
      <point x="296" y="509"/>
      <point x="317" y="512"/>
      <point x="317" y="541" type="curve" smooth="yes"/>
      <point x="317" y="566"/>
      <point x="294" y="569"/>
    </contour>
    <contour>
      <point x="125" y="444" type="curve" smooth="yes"/>
      <point x="116" y="443"/>
      <point x="106" y="442"/>
      <point x="97" y="441" type="curve" smooth="yes"/>
      <point x="21" y="429"/>
      <point x="0" y="419"/>
      <point x="0" y="398" type="curve" smooth="yes"/>
      <point x="0" y="364"/>
      <point x="38" y="362"/>
      <point x="98" y="372" type="curve" smooth="yes"/>
      <point x="111" y="374"/>
      <point x="127" y="378"/>
      <point x="136" y="381" type="curve" smooth="yes"/>
      <point x="150" y="386"/>
      <point x="158" y="393"/>
      <point x="158" y="408" type="curve" smooth="yes"/>
      <point x="158" y="433"/>
      <point x="148" y="446"/>
    </contour>
    <contour>
      <point x="517" y="522" type="curve" smooth="yes"/>
      <point x="508" y="522"/>
      <point x="498" y="522"/>
      <point x="489" y="522" type="curve" smooth="yes"/>
      <point x="473" y="522"/>
      <point x="466" y="509"/>
      <point x="466" y="495" type="curve" smooth="yes"/>
      <point x="466" y="477"/>
      <point x="477" y="457"/>
      <point x="497" y="458" type="curve" smooth="yes"/>
      <point x="503" y="458"/>
      <point x="510" y="458"/>
      <point x="516" y="458" type="curve" smooth="yes"/>
      <point x="534" y="459"/>
      <point x="542" y="475"/>
      <point x="542" y="491" type="curve" smooth="yes"/>
      <point x="542" y="507"/>
      <point x="533" y="523"/>
    </contour>
    <contour>
      <point x="494" y="192" type="curve" smooth="yes"/>
      <point x="468" y="192"/>
      <point x="447" y="213"/>
      <point x="447" y="239" type="curve" smooth="yes"/>
      <point x="447" y="265"/>
      <point x="468" y="285"/>
      <point x="494" y="285" type="curve" smooth="yes"/>
      <point x="520" y="285"/>
      <point x="540" y="265"/>
      <point x="540" y="239" type="curve" smooth="yes"/>
      <point x="540" y="213"/>
      <point x="520" y="192"/>
    </contour>
    <contour>
      <point x="499" y="339" type="curve" smooth="yes"/>
      <point x="478" y="339"/>
      <point x="461" y="356"/>
      <point x="461" y="377" type="curve" smooth="yes"/>
      <point x="461" y="398"/>
      <point x="478" y="414"/>
      <point x="499" y="414" type="curve" smooth="yes"/>
      <point x="519" y="414"/>
      <point x="535" y="398"/>
      <point x="535" y="377" type="curve" smooth="yes"/>
      <point x="535" y="356"/>
      <point x="519" y="339"/>
    </contour>
    <contour>
      <point x="455" y="79" type="curve" smooth="yes"/>
      <point x="435" y="79"/>
      <point x="419" y="95"/>
      <point x="419" y="115" type="curve" smooth="yes"/>
      <point x="419" y="135"/>
      <point x="435" y="150"/>
      <point x="455" y="150" type="curve" smooth="yes"/>
      <point x="475" y="150"/>
      <point x="490" y="135"/>
      <point x="490" y="115" type="curve" smooth="yes"/>
      <point x="490" y="95"/>
      <point x="475" y="79"/>
    </contour>
  </outline>
</glyph>
<glyph name="bracketleft" format="2">
  <advance width="342"/>
  <unicode hex="005B"/>
  <outline>
    <contour>
      <point x="105" y="-93" type="curve" smooth="yes"/>
      <point x="108" y="-155"/>
      <point x="126" y="-186"/>
      <point x="178" y="-186" type="curve" smooth="yes"/>
      <point x="218" y="-186"/>
      <point x="264" y="-184"/>
      <point x="305" y="-179" type="curve" smooth="yes"/>
      <point x="345" y="-174"/>
      <point x="357" y="-155"/>
      <point x="357" y="-135" type="curve" smooth="yes"/>
      <point x="357" y="-106"/>
      <point x="345" y="-85"/>
      <point x="316" y="-80" type="curve" smooth="yes"/>
      <point x="284" y="-75"/>
      <point x="257" y="-73"/>
      <point x="224" y="-70" type="curve" smooth="yes"/>
      <point x="201" y="-68"/>
      <point x="188" y="-51"/>
      <point x="189" y="-15" type="curve" smooth="yes"/>
      <point x="196" y="235"/>
      <point x="206" y="500"/>
      <point x="210" y="746" type="curve" smooth="yes"/>
      <point x="210" y="769"/>
      <point x="220" y="785"/>
      <point x="243" y="787" type="curve" smooth="yes"/>
      <point x="260" y="788"/>
      <point x="283" y="790"/>
      <point x="303" y="793" type="curve" smooth="yes"/>
      <point x="330" y="797"/>
      <point x="341" y="816"/>
      <point x="341" y="835" type="curve" smooth="yes"/>
      <point x="341" y="855"/>
      <point x="329" y="868"/>
      <point x="298" y="876" type="curve" smooth="yes"/>
      <point x="268" y="883"/>
      <point x="205" y="889"/>
      <point x="167" y="888" type="curve" smooth="yes"/>
      <point x="116" y="887"/>
      <point x="81" y="869"/>
      <point x="82" y="812" type="curve" smooth="yes"/>
      <point x="86" y="509"/>
      <point x="92" y="206"/>
    </contour>
  </outline>
</glyph>
<glyph name="backslash" format="2">
  <advance width="402"/>
  <unicode hex="005C"/>
  <outline>
    <contour>
      <point x="375" y="-94" type="curve" smooth="yes"/>
      <point x="409" y="-79"/>
      <point x="414" y="-63"/>
      <point x="395" y="-13" type="curve" smooth="yes"/>
      <point x="299" y="243"/>
      <point x="192" y="512"/>
      <point x="90" y="762" type="curve" smooth="yes"/>
      <point x="72" y="805"/>
      <point x="49" y="814"/>
      <point x="27" y="807" type="curve" smooth="yes"/>
      <point x="-2" y="798"/>
      <point x="-8" y="775"/>
      <point x="7" y="734" type="curve" smooth="yes"/>
      <point x="99" y="474"/>
      <point x="198" y="203"/>
      <point x="298" y="-56" type="curve" smooth="yes"/>
      <point x="311" y="-89"/>
      <point x="342" y="-108"/>
    </contour>
  </outline>
</glyph>
<glyph name="grave" format="2">
  <advance width="245"/>
  <unicode hex="0060"/>
  <outline>
    <contour>
      <point x="130" y="411" type="curve" smooth="yes"/>
      <point x="146" y="376"/>
      <point x="164" y="363"/>
      <point x="187" y="371" type="curve" smooth="yes"/>
      <point x="212" y="380"/>
      <point x="214" y="400"/>
      <point x="207" y="439" type="curve" smooth="yes"/>
      <point x="195" y="507"/>
      <point x="179" y="582"/>
      <point x="165" y="640" type="curve" smooth="yes"/>
      <point x="151" y="699"/>
      <point x="119" y="719"/>
      <point x="78" y="706" type="curve" smooth="yes"/>
      <point x="36" y="693"/>
      <point x="25" y="657"/>
      <point x="49" y="597" type="curve" smooth="yes"/>
      <point x="70" y="545"/>
      <point x="100" y="476"/>
    </contour>
  </outline>
</glyph>
<glyph name="braceleft" format="2">
  <advance width="390"/>
  <unicode hex="007B"/>
  <outline>
    <contour>
      <point x="8" y="330" type="curve" smooth="yes"/>
      <point x="8" y="290"/>
      <point x="23" y="255"/>
      <point x="70" y="241" type="curve" smooth="yes"/>
      <point x="154" y="216"/>
      <point x="172" y="197"/>
      <point x="168" y="158" type="curve" smooth="yes"/>
      <point x="163" y="100"/>
      <point x="93" y="41"/>
      <point x="85" y="-20" type="curve" smooth="yes"/>
      <point x="72" y="-113"/>
      <point x="162" y="-148"/>
      <point x="279" y="-148" type="curve" smooth="yes"/>
      <point x="343" y="-148"/>
      <point x="368" y="-141"/>
      <point x="368" y="-106" type="curve" smooth="yes"/>
      <point x="368" y="-72"/>
      <point x="348" y="-63"/>
      <point x="306" y="-63" type="curve" smooth="yes"/>
      <point x="234" y="-63"/>
      <point x="208" y="-47"/>
      <point x="213" y="-9" type="curve" smooth="yes"/>
      <point x="219" y="32"/>
      <point x="255" y="93"/>
      <point x="265" y="152" type="curve" smooth="yes"/>
      <point x="277" y="217"/>
      <point x="251" y="272"/>
      <point x="167" y="293" type="curve" smooth="yes"/>
      <point x="142" y="299"/>
      <point x="131" y="308"/>
      <point x="131" y="326" type="curve" smooth="yes"/>
      <point x="131" y="340"/>
      <point x="141" y="349"/>
      <point x="163" y="350" type="curve" smooth="yes"/>
      <point x="245" y="352"/>
      <point x="301" y="385"/>
      <point x="297" y="448" type="curve" smooth="yes"/>
      <point x="292" y="525"/>
      <point x="275" y="647"/>
      <point x="270" y="717" type="curve" smooth="yes"/>
      <point x="267" y="756"/>
      <point x="291" y="768"/>
      <point x="326" y="768" type="curve" smooth="yes"/>
      <point x="351" y="768"/>
      <point x="365" y="779"/>
      <point x="365" y="805" type="curve" smooth="yes"/>
      <point x="365" y="832"/>
      <point x="330" y="844"/>
      <point x="252" y="844" type="curve" smooth="yes"/>
      <point x="143" y="844"/>
      <point x="111" y="800"/>
      <point x="103" y="721" type="curve" smooth="yes"/>
      <point x="94" y="630"/>
      <point x="94" y="562"/>
      <point x="88" y="497" type="curve" smooth="yes"/>
      <point x="85" y="462"/>
      <point x="82" y="424"/>
      <point x="54" y="409" type="curve" smooth="yes"/>
      <point x="26" y="394"/>
      <point x="8" y="368"/>
    </contour>
    <contour>
      <point x="193" y="426" type="curve" smooth="yes"/>
      <point x="166" y="426"/>
      <point x="145" y="447"/>
      <point x="145" y="474" type="curve" smooth="yes"/>
      <point x="145" y="500"/>
      <point x="166" y="523"/>
      <point x="193" y="523" type="curve" smooth="yes"/>
      <point x="219" y="523"/>
      <point x="242" y="500"/>
      <point x="242" y="474" type="curve" smooth="yes"/>
      <point x="242" y="447"/>
      <point x="219" y="426"/>
    </contour>
    <contour>
      <point x="193" y="558" type="curve" smooth="yes"/>
      <point x="169" y="558"/>
      <point x="149" y="578"/>
      <point x="149" y="602" type="curve" smooth="yes"/>
      <point x="149" y="627"/>
      <point x="169" y="648"/>
      <point x="193" y="648" type="curve" smooth="yes"/>
      <point x="218" y="648"/>
      <point x="239" y="627"/>
      <point x="239" y="602" type="curve" smooth="yes"/>
      <point x="239" y="578"/>
      <point x="218" y="558"/>
    </contour>
    <contour>
      <point x="164" y="2" type="curve" smooth="yes"/>
      <point x="164" y="2"/>
      <point x="164" y="2"/>
      <point x="164" y="2" type="curve" smooth="yes"/>
      <point x="164" y="2"/>
      <point x="164" y="2"/>
      <point x="164" y="2" type="curve" smooth="yes"/>
      <point x="164" y="2"/>
      <point x="164" y="2"/>
      <point x="164" y="2" type="curve" smooth="yes"/>
      <point x="164" y="2"/>
      <point x="164" y="2"/>
    </contour>
    <contour>
      <point x="205" y="113" type="curve" smooth="yes"/>
      <point x="205" y="113"/>
      <point x="205" y="113"/>
      <point x="205" y="113" type="curve" smooth="yes"/>
      <point x="205" y="113"/>
      <point x="205" y="113"/>
      <point x="205" y="113" type="curve" smooth="yes"/>
      <point x="205" y="113"/>
      <point x="205" y="113"/>
      <point x="205" y="113" type="curve" smooth="yes"/>
      <point x="205" y="113"/>
      <point x="205" y="113"/>
    </contour>
  </outline>
</glyph>
<glyph name="braceright" format="2">
  <advance width="404"/>
  <unicode hex="007D"/>
  <outline>
    <contour>
      <point x="361" y="288" type="curve" smooth="yes"/>
      <point x="361" y="333"/>
      <point x="348" y="371"/>
      <point x="306" y="386" type="curve" smooth="yes"/>
      <point x="265" y="401"/>
      <point x="247" y="433"/>
      <point x="245" y="494" type="curve" smooth="yes"/>
      <point x="242" y="566"/>
      <point x="265" y="639"/>
      <point x="262" y="709" type="curve" smooth="yes"/>
      <point x="259" y="768"/>
      <point x="225" y="816"/>
      <point x="83" y="816" type="curve" smooth="yes"/>
      <point x="31" y="816"/>
      <point x="8" y="802"/>
      <point x="8" y="771" type="curve" smooth="yes"/>
      <point x="8" y="740"/>
      <point x="33" y="726"/>
      <point x="74" y="726" type="curve" smooth="yes"/>
      <point x="134" y="726"/>
      <point x="162" y="712"/>
      <point x="165" y="684" type="curve" smooth="yes"/>
      <point x="171" y="621"/>
      <point x="150" y="540"/>
      <point x="155" y="447" type="curve" smooth="yes"/>
      <point x="158" y="380"/>
      <point x="187" y="347"/>
      <point x="230" y="330" type="curve" smooth="yes"/>
      <point x="252" y="321"/>
      <point x="265" y="311"/>
      <point x="265" y="288" type="curve" smooth="yes"/>
      <point x="265" y="266"/>
      <point x="244" y="253"/>
      <point x="202" y="246" type="curve" smooth="yes"/>
      <point x="113" y="229"/>
      <point x="73" y="197"/>
      <point x="85" y="133" type="curve" smooth="yes"/>
      <point x="93" y="92"/>
      <point x="117" y="54"/>
      <point x="129" y="9" type="curve" smooth="yes"/>
      <point x="140" y="-34"/>
      <point x="109" y="-49"/>
      <point x="55" y="-49" type="curve" smooth="yes"/>
      <point x="12" y="-49"/>
      <point x="-13" y="-58"/>
      <point x="-13" y="-89" type="curve" smooth="yes"/>
      <point x="-13" y="-129"/>
      <point x="13" y="-143"/>
      <point x="94" y="-143" type="curve" smooth="yes"/>
      <point x="190" y="-143"/>
      <point x="249" y="-101"/>
      <point x="241" y="-27" type="curve" smooth="yes"/>
      <point x="237" y="18"/>
      <point x="226" y="62"/>
      <point x="222" y="107" type="curve" smooth="yes"/>
      <point x="217" y="152"/>
      <point x="231" y="174"/>
      <point x="271" y="183" type="curve" smooth="yes"/>
      <point x="337" y="198"/>
      <point x="361" y="236"/>
    </contour>
    <contour>
      <point x="156" y="568" type="curve" smooth="yes"/>
      <point x="73" y="573"/>
      <point x="60" y="563"/>
      <point x="56" y="537" type="curve" smooth="yes"/>
      <point x="52" y="510"/>
      <point x="67" y="495"/>
      <point x="135" y="487" type="curve" smooth="yes"/>
      <point x="190" y="481"/>
      <point x="218" y="479"/>
      <point x="252" y="478" type="curve" smooth="yes"/>
      <point x="330" y="476"/>
      <point x="348" y="484"/>
      <point x="350" y="513" type="curve" smooth="yes"/>
      <point x="352" y="540"/>
      <point x="338" y="548"/>
      <point x="261" y="558" type="curve" smooth="yes"/>
      <point x="235" y="561"/>
      <point x="196" y="566"/>
    </contour>
    <contour>
      <point x="175" y="47" type="curve" smooth="yes"/>
      <point x="175" y="47"/>
      <point x="175" y="47"/>
      <point x="175" y="47" type="curve" smooth="yes"/>
      <point x="175" y="47"/>
      <point x="175" y="47"/>
      <point x="175" y="47" type="curve" smooth="yes"/>
      <point x="175" y="47"/>
      <point x="175" y="47"/>
      <point x="175" y="47" type="curve" smooth="yes"/>
      <point x="175" y="47"/>
      <point x="175" y="47"/>
    </contour>
  </outline>
</glyph>
<glyph name="asciitilde" format="2">
  <advance width="472"/>
  <unicode hex="007E"/>
  <outline>
    <contour>
      <point x="31" y="278" type="curve" smooth="yes"/>
      <point x="29" y="232"/>
      <point x="47" y="215"/>
      <point x="69" y="215" type="curve" smooth="yes"/>
      <point x="92" y="215"/>
      <point x="111" y="231"/>
      <point x="113" y="259" type="curve" smooth="yes"/>
      <point x="117" y="309"/>
      <point x="139" y="332"/>
      <point x="169" y="332" type="curve" smooth="yes"/>
      <point x="216" y="332"/>
      <point x="248" y="258"/>
      <point x="331" y="258" type="curve" smooth="yes"/>
      <point x="409" y="258"/>
      <point x="443" y="317"/>
      <point x="446" y="410" type="curve" smooth="yes"/>
      <point x="447" y="452"/>
      <point x="429" y="469"/>
      <point x="404" y="469" type="curve" smooth="yes"/>
      <point x="382" y="469"/>
      <point x="363" y="456"/>
      <point x="362" y="417" type="curve" smooth="yes"/>
      <point x="361" y="384"/>
      <point x="353" y="352"/>
      <point x="325" y="352" type="curve" smooth="yes"/>
      <point x="275" y="352"/>
      <point x="255" y="434"/>
      <point x="156" y="434" type="curve" smooth="yes"/>
      <point x="84" y="434"/>
      <point x="35" y="366"/>
    </contour>
  </outline>
</glyph>
<glyph name="brokenbar" format="2">
  <advance width="225"/>
  <unicode hex="00A6"/>
  <outline>
    <contour>
      <point x="65" y="697" type="curve" smooth="yes"/>
      <point x="64" y="615"/>
      <point x="63" y="534"/>
      <point x="65" y="453" type="curve" smooth="yes"/>
      <point x="66" y="414"/>
      <point x="81" y="392"/>
      <point x="110" y="392" type="curve" smooth="yes"/>
      <point x="141" y="392"/>
      <point x="155" y="411"/>
      <point x="157" y="451" type="curve" smooth="yes"/>
      <point x="162" y="532"/>
      <point x="168" y="615"/>
      <point x="170" y="697" type="curve" smooth="yes"/>
      <point x="171" y="741"/>
      <point x="152" y="763"/>
      <point x="118" y="763" type="curve" smooth="yes"/>
      <point x="85" y="763"/>
      <point x="66" y="741"/>
    </contour>
    <contour>
      <point x="59" y="234" type="curve" smooth="yes"/>
      <point x="63" y="147"/>
      <point x="69" y="60"/>
      <point x="76" y="-27" type="curve" smooth="yes"/>
      <point x="80" y="-71"/>
      <point x="92" y="-90"/>
      <point x="122" y="-90" type="curve" smooth="yes"/>
      <point x="152" y="-90"/>
      <point x="164" y="-72"/>
      <point x="165" y="-27" type="curve" smooth="yes"/>
      <point x="167" y="60"/>
      <point x="166" y="147"/>
      <point x="165" y="234" type="curve" smooth="yes"/>
      <point x="165" y="269"/>
      <point x="150" y="294"/>
      <point x="112" y="294" type="curve" smooth="yes"/>
      <point x="75" y="294"/>
      <point x="57" y="273"/>
    </contour>
  </outline>
</glyph>
<glyph name="guillemetright" format="2">
  <advance width="493"/>
  <unicode hex="00BB"/>
  <outline>
    <contour>
      <point x="304" y="561" type="curve" smooth="yes"/>
      <point x="279" y="602"/>
      <point x="212" y="575"/>
      <point x="236" y="524" type="curve" smooth="yes"/>
      <point x="258" y="476"/>
      <point x="313" y="363"/>
      <point x="334" y="318" type="curve" smooth="yes"/>
      <point x="343" y="299"/>
      <point x="347" y="276"/>
      <point x="338" y="258" type="curve" smooth="yes"/>
      <point x="316" y="211"/>
      <point x="273" y="134"/>
      <point x="251" y="89" type="curve" smooth="yes"/>
      <point x="218" y="22"/>
      <point x="318" y="-19"/>
      <point x="345" y="42" type="curve" smooth="yes"/>
      <point x="367" y="92"/>
      <point x="402" y="175"/>
      <point x="427" y="238" type="curve" smooth="yes"/>
      <point x="440" y="271"/>
      <point x="438" y="312"/>
      <point x="424" y="339" type="curve" smooth="yes"/>
      <point x="396" y="395"/>
      <point x="336" y="508"/>
    </contour>
    <contour>
      <point x="157" y="531" type="curve" smooth="yes"/>
      <point x="125" y="591"/>
      <point x="34" y="546"/>
      <point x="67" y="486" type="curve" smooth="yes"/>
      <point x="99" y="427"/>
      <point x="141" y="362"/>
      <point x="171" y="306" type="curve" smooth="yes"/>
      <point x="183" y="284"/>
      <point x="184" y="271"/>
      <point x="170" y="250" type="curve" smooth="yes"/>
      <point x="147" y="215"/>
      <point x="117" y="170"/>
      <point x="92" y="131" type="curve" smooth="yes"/>
      <point x="60" y="81"/>
      <point x="122" y="38"/>
      <point x="155" y="82" type="curve" smooth="yes"/>
      <point x="186" y="124"/>
      <point x="231" y="189"/>
      <point x="257" y="229" type="curve" smooth="yes"/>
      <point x="272" y="252"/>
      <point x="276" y="279"/>
      <point x="262" y="311" type="curve" smooth="yes"/>
      <point x="233" y="378"/>
      <point x="186" y="476"/>
    </contour>
  </outline>
</glyph>
<glyph name="emdash" format="2">
  <advance width="558"/>
  <unicode hex="2014"/>
  <outline>
    <contour>
      <point x="97" y="365" type="curve" smooth="yes"/>
      <point x="61" y="363"/>
      <point x="43" y="348"/>
      <point x="43" y="315" type="curve" smooth="yes"/>
      <point x="43" y="280"/>
      <point x="64" y="267"/>
      <point x="99" y="267" type="curve" smooth="yes"/>
      <point x="217" y="266"/>
      <point x="341" y="270"/>
      <point x="462" y="275" type="curve" smooth="yes"/>
      <point x="499" y="277"/>
      <point x="515" y="292"/>
      <point x="515" y="323" type="curve" smooth="yes"/>
      <point x="515" y="358"/>
      <point x="497" y="370"/>
      <point x="465" y="371" type="curve" smooth="yes"/>
      <point x="347" y="372"/>
      <point x="218" y="371"/>
    </contour>
  </outline>
</glyph>
<glyph name="quoteleft" format="2">
  <advance width="260"/>
  <unicode hex="2018"/>
  <outline>
    <contour>
      <point x="211" y="644" type="curve" smooth="yes"/>
      <point x="257" y="672"/>
      <point x="219" y="741"/>
      <point x="171" y="713" type="curve" smooth="yes"/>
      <point x="89" y="665"/>
      <point x="38" y="600"/>
      <point x="38" y="476" type="curve" smooth="yes"/>
      <point x="38" y="399"/>
      <point x="70" y="337"/>
      <point x="141" y="337" type="curve" smooth="yes"/>
      <point x="193" y="337"/>
      <point x="227" y="368"/>
      <point x="227" y="419" type="curve" smooth="yes"/>
      <point x="227" y="511"/>
      <point x="138" y="481"/>
      <point x="138" y="546" type="curve" smooth="yes"/>
      <point x="138" y="583"/>
      <point x="164" y="616"/>
    </contour>
    <contour>
      <point x="145" y="439" type="curve" smooth="yes"/>
      <point x="145" y="439"/>
      <point x="145" y="439"/>
      <point x="145" y="439" type="curve" smooth="yes"/>
      <point x="145" y="439"/>
      <point x="145" y="439"/>
      <point x="145" y="439" type="curve" smooth="yes"/>
      <point x="145" y="439"/>
      <point x="145" y="439"/>
      <point x="145" y="439" type="curve" smooth="yes"/>
      <point x="145" y="439"/>
      <point x="145" y="439"/>
    </contour>
    <contour>
      <point x="104" y="590" type="curve" smooth="yes"/>
      <point x="114" y="584"/>
      <point x="123" y="586"/>
      <point x="135" y="607" type="curve" smooth="yes"/>
      <point x="145" y="625"/>
      <point x="143" y="637"/>
      <point x="138" y="641" type="curve" smooth="yes"/>
      <point x="134" y="644"/>
      <point x="134" y="644"/>
      <point x="128" y="647" type="curve" smooth="yes"/>
      <point x="118" y="652"/>
      <point x="107" y="653"/>
      <point x="96" y="633" type="curve" smooth="yes"/>
      <point x="85" y="612"/>
      <point x="87" y="604"/>
      <point x="95" y="597" type="curve" smooth="yes"/>
      <point x="99" y="594"/>
      <point x="100" y="593"/>
    </contour>
  </outline>
</glyph>
<glyph name="quoteright" format="2">
  <advance width="260"/>
  <unicode hex="2019"/>
  <outline>
    <contour>
      <point x="48" y="380" type="curve" smooth="yes"/>
      <point x="-4" y="357"/>
      <point x="30" y="297"/>
      <point x="76" y="316" type="curve" smooth="yes"/>
      <point x="168" y="353"/>
      <point x="239" y="434"/>
      <point x="239" y="583" type="curve" smooth="yes"/>
      <point x="239" y="669"/>
      <point x="205" y="714"/>
      <point x="129" y="714" type="curve" smooth="yes"/>
      <point x="65" y="714"/>
      <point x="28" y="676"/>
      <point x="28" y="619" type="curve" smooth="yes"/>
      <point x="28" y="508"/>
      <point x="138" y="546"/>
      <point x="138" y="492" type="curve" smooth="yes"/>
      <point x="138" y="462"/>
      <point x="109" y="407"/>
    </contour>
    <contour>
      <point x="129" y="575" type="curve" smooth="yes"/>
      <point x="105" y="575"/>
      <point x="86" y="594"/>
      <point x="86" y="618" type="curve" smooth="yes"/>
      <point x="86" y="642"/>
      <point x="105" y="661"/>
      <point x="129" y="661" type="curve" smooth="yes"/>
      <point x="153" y="661"/>
      <point x="172" y="642"/>
      <point x="172" y="618" type="curve" smooth="yes"/>
      <point x="172" y="594"/>
      <point x="153" y="575"/>
    </contour>
    <contour>
      <point x="130" y="450" type="curve" smooth="yes"/>
      <point x="88" y="476"/>
      <point x="67" y="484"/>
      <point x="54" y="468" type="curve" smooth="yes"/>
      <point x="42" y="452"/>
      <point x="51" y="432"/>
      <point x="90" y="402" type="curve" smooth="yes"/>
      <point x="107" y="389"/>
      <point x="125" y="375"/>
      <point x="142" y="364" type="curve" smooth="yes"/>
      <point x="192" y="331"/>
      <point x="212" y="326"/>
      <point x="224" y="342" type="curve" smooth="yes"/>
      <point x="236" y="358"/>
      <point x="231" y="382"/>
      <point x="190" y="411" type="curve" smooth="yes"/>
      <point x="173" y="423"/>
      <point x="148" y="439"/>
    </contour>
  </outline>
</glyph>
<glyph name="bullet" format="2">
  <advance width="352"/>
  <unicode hex="2022"/>
  <outline>
    <contour>
      <point x="164" y="197" type="curve" smooth="yes"/>
      <point x="273" y="197"/>
      <point x="322" y="244"/>
      <point x="322" y="355" type="curve" smooth="yes"/>
      <point x="322" y="426"/>
      <point x="281" y="485"/>
      <point x="178" y="485" type="curve" smooth="yes"/>
      <point x="99" y="485"/>
      <point x="40" y="427"/>
      <point x="40" y="330" type="curve" smooth="yes"/>
      <point x="40" y="258"/>
      <point x="94" y="197"/>
    </contour>
    <contour>
      <point x="197" y="260" type="curve" smooth="yes"/>
      <point x="165" y="260"/>
      <point x="140" y="285"/>
      <point x="140" y="318" type="curve" smooth="yes"/>
      <point x="140" y="349"/>
      <point x="165" y="376"/>
      <point x="197" y="376" type="curve" smooth="yes"/>
      <point x="228" y="376"/>
      <point x="255" y="349"/>
      <point x="255" y="318" type="curve" smooth="yes"/>
      <point x="255" y="285"/>
      <point x="228" y="260"/>
    </contour>
  </outline>
</glyph>
<glyph name="guilsinglright" format="2">
  <advance width="331"/>
  <unicode hex="203A"/>
  <outline>
    <contour>
      <point x="106" y="548" type="curve" smooth="yes"/>
      <point x="80" y="584"/>
      <point x="24" y="552"/>
      <point x="46" y="514" type="curve" smooth="yes"/>
      <point x="87" y="441"/>
      <point x="141" y="347"/>
      <point x="174" y="289" type="curve" smooth="yes"/>
      <point x="191" y="260"/>
      <point x="190" y="239"/>
      <point x="175" y="221" type="curve" smooth="yes"/>
      <point x="146" y="186"/>
      <point x="104" y="134"/>
      <point x="74" y="95" type="curve" smooth="yes"/>
      <point x="35" y="43"/>
      <point x="111" y="-18"/>
      <point x="152" y="37" type="curve" smooth="yes"/>
      <point x="195" y="94"/>
      <point x="236" y="153"/>
      <point x="272" y="206" type="curve" smooth="yes"/>
      <point x="294" y="238"/>
      <point x="294" y="278"/>
      <point x="266" y="321" type="curve" smooth="yes"/>
      <point x="219" y="391"/>
      <point x="158" y="476"/>
    </contour>
  </outline>
</glyph>
<glyph name="leftArrow" format="2">
  <advance width="680"/>
  <unicode hex="2190"/>
  <outline>
    <contour>
      <point x="664" y="354" type="curve" smooth="yes"/>
      <point x="664" y="405"/>
      <point x="643" y="436"/>
      <point x="582" y="434" type="curve" smooth="yes"/>
      <point x="428" y="428"/>
      <point x="294" y="395"/>
      <point x="181" y="392" type="curve" smooth="yes"/>
      <point x="159" y="391"/>
      <point x="152" y="408"/>
      <point x="170" y="424" type="curve" smooth="yes"/>
      <point x="204" y="455"/>
      <point x="236" y="475"/>
      <point x="273" y="510" type="curve" smooth="yes"/>
      <point x="306" y="540"/>
      <point x="324" y="587"/>
      <point x="287" y="619" type="curve" smooth="yes"/>
      <point x="258" y="644"/>
      <point x="212" y="645"/>
      <point x="176" y="601" type="curve" smooth="yes"/>
      <point x="126" y="540"/>
      <point x="90" y="488"/>
      <point x="43" y="415" type="curve" smooth="yes"/>
      <point x="8" y="361"/>
      <point x="3" y="324"/>
      <point x="37" y="283" type="curve" smooth="yes"/>
      <point x="109" y="198"/>
      <point x="177" y="130"/>
      <point x="233" y="79" type="curve" smooth="yes"/>
      <point x="268" y="47"/>
      <point x="315" y="32"/>
      <point x="349" y="69" type="curve" smooth="yes"/>
      <point x="382" y="106"/>
      <point x="358" y="150"/>
      <point x="320" y="177" type="curve" smooth="yes"/>
      <point x="274" y="209"/>
      <point x="214" y="241"/>
      <point x="173" y="270" type="curve" smooth="yes"/>
      <point x="152" y="284"/>
      <point x="159" y="310"/>
      <point x="184" y="310" type="curve" smooth="yes"/>
      <point x="287" y="311"/>
      <point x="415" y="292"/>
      <point x="588" y="291" type="curve" smooth="yes"/>
      <point x="632" y="291"/>
      <point x="664" y="308"/>
    </contour>
  </outline>
</glyph>
<glyph name="border_1" format="2">
  <advance width="732"/>
  <unicode hex="E000"/>
  <outline>
    <contour>
      <point x="55" y="381" type="curve" smooth="yes"/>
      <point x="25" y="352"/>
      <point x="10" y="322"/>
      <point x="31" y="301" type="curve" smooth="yes"/>
      <point x="52" y="280"/>
      <point x="77" y="287"/>
      <point x="110" y="310" type="curve" smooth="yes"/>
      <point x="130" y="324"/>
      <point x="148" y="345"/>
      <point x="168" y="359" type="curve" smooth="yes"/>
      <point x="194" y="377"/>
      <point x="215" y="378"/>
      <point x="237" y="353" type="curve" smooth="yes"/>
      <point x="294" y="287"/>
      <point x="347" y="213"/>
      <point x="396" y="156" type="curve" smooth="yes"/>
      <point x="451" y="92"/>
      <point x="516" y="93"/>
      <point x="561" y="120" type="curve" smooth="yes"/>
      <point x="598" y="141"/>
      <point x="641" y="173"/>
      <point x="680" y="209" type="curve" smooth="yes"/>
      <point x="708" y="234"/>
      <point x="718" y="264"/>
      <point x="700" y="286" type="curve" smooth="yes"/>
      <point x="683" y="307"/>
      <point x="661" y="299"/>
      <point x="632" y="286" type="curve" smooth="yes"/>
      <point x="605" y="274"/>
      <point x="579" y="253"/>
      <point x="550" y="237" type="curve" smooth="yes"/>
      <point x="526" y="225"/>
      <point x="516" y="229"/>
      <point x="492" y="258" type="curve" smooth="yes"/>
      <point x="438" y="323"/>
      <point x="388" y="402"/>
      <point x="336" y="463" type="curve" smooth="yes"/>
      <point x="288" y="519"/>
      <point x="234" y="524"/>
      <point x="167" y="476" type="curve" smooth="yes"/>
      <point x="127" y="447"/>
      <point x="91" y="416"/>
    </contour>
    <contour>
      <point x="199" y="122" type="curve" smooth="yes"/>
      <point x="237" y="122"/>
      <point x="268" y="153"/>
      <point x="268" y="192" type="curve" smooth="yes"/>
      <point x="268" y="230"/>
      <point x="237" y="261"/>
      <point x="199" y="261" type="curve" smooth="yes"/>
      <point x="160" y="261"/>
      <point x="129" y="230"/>
      <point x="129" y="192" type="curve" smooth="yes"/>
      <point x="129" y="153"/>
      <point x="160" y="122"/>
    </contour>
    <contour>
      <point x="551" y="346" type="curve" smooth="yes"/>
      <point x="597" y="346"/>
      <point x="636" y="384"/>
      <point x="636" y="432" type="curve" smooth="yes"/>
      <point x="636" y="478"/>
      <point x="597" y="517"/>
      <point x="551" y="517" type="curve" smooth="yes"/>
      <point x="503" y="517"/>
      <point x="465" y="478"/>
      <point x="465" y="432" type="curve" smooth="yes"/>
      <point x="465" y="384"/>
      <point x="503" y="346"/>
    </contour>
  </outline>
</glyph>
<glyph name="border_2" format="2">
  <advance width="615"/>
  <unicode hex="E001"/>
  <outline>
    <contour>
      <point x="24" y="81" type="curve" smooth="yes"/>
      <point x="24" y="175"/>
      <point x="300" y="240"/>
      <point x="300" y="344" type="curve" smooth="yes"/>
      <point x="300" y="421"/>
      <point x="268" y="437"/>
      <point x="268" y="483" type="curve" smooth="yes"/>
      <point x="268" y="528"/>
      <point x="308" y="550"/>
      <point x="359" y="550" type="curve" smooth="yes"/>
      <point x="419" y="550"/>
      <point x="454" y="520"/>
      <point x="454" y="446" type="curve" smooth="yes"/>
      <point x="454" y="390"/>
      <point x="404" y="334"/>
      <point x="404" y="251" type="curve" smooth="yes"/>
      <point x="404" y="171"/>
      <point x="500" y="186"/>
      <point x="500" y="81" type="curve" smooth="yes"/>
      <point x="500" y="9"/>
      <point x="377" y="-24"/>
      <point x="227" y="-24" type="curve" smooth="yes"/>
      <point x="108" y="-24"/>
      <point x="24" y="9"/>
    </contour>
    <contour>
      <point x="133" y="307" type="curve" smooth="yes"/>
      <point x="75" y="307"/>
      <point x="42" y="331"/>
      <point x="42" y="372" type="curve" smooth="yes"/>
      <point x="42" y="416"/>
      <point x="74" y="471"/>
      <point x="119" y="471" type="curve" smooth="yes"/>
      <point x="174" y="471"/>
      <point x="229" y="423"/>
      <point x="229" y="372" type="curve" smooth="yes"/>
      <point x="229" y="331"/>
      <point x="205" y="307"/>
    </contour>
    <contour>
      <point x="523" y="225" type="curve" smooth="yes"/>
      <point x="492" y="225"/>
      <point x="472" y="247"/>
      <point x="472" y="276" type="curve" smooth="yes"/>
      <point x="472" y="305"/>
      <point x="495" y="352"/>
      <point x="529" y="352" type="curve" smooth="yes"/>
      <point x="559" y="352"/>
      <point x="585" y="311"/>
      <point x="585" y="277" type="curve" smooth="yes"/>
      <point x="585" y="240"/>
      <point x="562" y="225"/>
    </contour>
  </outline>
</glyph>
<glyph name="border_4" format="2">
  <advance width="1395"/>
  <unicode hex="E003"/>
  <outline>
    <contour>
      <point x="-65" y="229" type="curve" smooth="yes"/>
      <point x="-39" y="200"/>
      <point x="-8" y="213"/>
      <point x="14" y="233" type="curve" smooth="yes"/>
      <point x="58" y="273"/>
      <point x="99" y="319"/>
      <point x="175" y="387" type="curve" smooth="yes"/>
      <point x="203" y="412"/>
      <point x="236" y="404"/>
      <point x="251" y="374" type="curve" smooth="yes"/>
      <point x="315" y="246"/>
      <point x="343" y="174"/>
      <point x="405" y="51" type="curve" smooth="yes"/>
      <point x="445" y="-28"/>
      <point x="536" y="-37"/>
      <point x="601" y="42" type="curve" smooth="yes"/>
      <point x="698" y="162"/>
      <point x="776" y="267"/>
      <point x="863" y="363" type="curve" smooth="yes"/>
      <point x="893" y="396"/>
      <point x="917" y="396"/>
      <point x="947" y="369" type="curve" smooth="yes"/>
      <point x="1015" y="308"/>
      <point x="1090" y="226"/>
      <point x="1182" y="141" type="curve" smooth="yes"/>
      <point x="1213" y="112"/>
      <point x="1255" y="104"/>
      <point x="1306" y="140" type="curve" smooth="yes"/>
      <point x="1329" y="156"/>
      <point x="1368" y="195"/>
      <point x="1409" y="232" type="curve" smooth="yes"/>
      <point x="1444" y="264"/>
      <point x="1446" y="297"/>
      <point x="1428" y="319" type="curve" smooth="yes"/>
      <point x="1406" y="345"/>
      <point x="1372" y="335"/>
      <point x="1346" y="315" type="curve" smooth="yes"/>
      <point x="1330" y="303"/>
      <point x="1304" y="278"/>
      <point x="1260" y="246" type="curve" smooth="yes"/>
      <point x="1238" y="230"/>
      <point x="1222" y="233"/>
      <point x="1199" y="257" type="curve" smooth="yes"/>
      <point x="1157" y="301"/>
      <point x="1063" y="414"/>
      <point x="989" y="494" type="curve" smooth="yes"/>
      <point x="925" y="563"/>
      <point x="826" y="554"/>
      <point x="771" y="469" type="curve" smooth="yes"/>
      <point x="726" y="400"/>
      <point x="633" y="240"/>
      <point x="576" y="160" type="curve" smooth="yes"/>
      <point x="549" y="122"/>
      <point x="524" y="129"/>
      <point x="507" y="160" type="curve" smooth="yes"/>
      <point x="436" y="291"/>
      <point x="380" y="399"/>
      <point x="327" y="488" type="curve" smooth="yes"/>
      <point x="297" y="538"/>
      <point x="245" y="541"/>
      <point x="190" y="504" type="curve" smooth="yes"/>
      <point x="118" y="456"/>
      <point x="33" y="386"/>
      <point x="-52" y="311" type="curve" smooth="yes"/>
      <point x="-73" y="293"/>
      <point x="-88" y="254"/>
    </contour>
  </outline>
</glyph>
<glyph name="Q.ss01" format="2">
  <advance width="627"/>
  <anchor x="258" y="0" name="bottom"/>
  <anchor x="333" y="700" name="top"/>
  <outline>
    <contour>
      <point x="40" y="317" type="curve" smooth="yes"/>
      <point x="40" y="45"/>
      <point x="187" y="52"/>
      <point x="235" y="-81" type="curve" smooth="yes"/>
      <point x="276" y="-194" type="line" smooth="yes"/>
      <point x="305" y="-273"/>
      <point x="424" y="-218"/>
      <point x="424" y="-154" type="curve" smooth="yes"/>
      <point x="424" y="-91"/>
      <point x="300" y="-54"/>
      <point x="298" y="-16" type="curve" smooth="yes"/>
      <point x="297" y="-3"/>
      <point x="309" y="9"/>
      <point x="327" y="13" type="curve" smooth="yes"/>
      <point x="506" y="53"/>
      <point x="587" y="195"/>
      <point x="587" y="378" type="curve" smooth="yes"/>
      <point x="587" y="597"/>
      <point x="484" y="718"/>
      <point x="324" y="718" type="curve" smooth="yes"/>
      <point x="155" y="718"/>
      <point x="40" y="566"/>
    </contour>
    <contour>
      <point x="283" y="80" type="curve" smooth="yes"/>
      <point x="183" y="80"/>
      <point x="127" y="156"/>
      <point x="127" y="259" type="curve" smooth="yes"/>
      <point x="127" y="394"/>
      <point x="203" y="493"/>
      <point x="322" y="493" type="curve" smooth="yes"/>
      <point x="425" y="493"/>
      <point x="486" y="424"/>
      <point x="486" y="315" type="curve" smooth="yes"/>
      <point x="486" y="170"/>
      <point x="398" y="80"/>
    </contour>
    <contour>
      <point x="208" y="519" type="curve" smooth="yes"/>
      <point x="183" y="519"/>
      <point x="163" y="539"/>
      <point x="163" y="564" type="curve" smooth="yes"/>
      <point x="163" y="586"/>
      <point x="183" y="606"/>
      <point x="208" y="606" type="curve" smooth="yes"/>
      <point x="230" y="606"/>
      <point x="250" y="586"/>
      <point x="250" y="564" type="curve" smooth="yes"/>
      <point x="250" y="539"/>
      <point x="230" y="519"/>
    </contour>
    <contour>
      <point x="341" y="552" type="curve" smooth="yes"/>
      <point x="311" y="552"/>
      <point x="286" y="577"/>
      <point x="286" y="607" type="curve" smooth="yes"/>
      <point x="286" y="638"/>
      <point x="311" y="663"/>
      <point x="341" y="663" type="curve" smooth="yes"/>
      <point x="372" y="663"/>
      <point x="397" y="638"/>
      <point x="397" y="607" type="curve" smooth="yes"/>
      <point x="397" y="577"/>
      <point x="372" y="552"/>
    </contour>
    <contour>
      <point x="463" y="506" type="curve" smooth="yes"/>
      <point x="442" y="506"/>
      <point x="426" y="522"/>
      <point x="426" y="543" type="curve" smooth="yes"/>
      <point x="426" y="562"/>
      <point x="442" y="578"/>
      <point x="463" y="578" type="curve" smooth="yes"/>
      <point x="482" y="578"/>
      <point x="498" y="562"/>
      <point x="498" y="543" type="curve" smooth="yes"/>
      <point x="498" y="522"/>
      <point x="482" y="506"/>
    </contour>
    <contour>
      <point x="157" y="87" type="curve" smooth="yes"/>
      <point x="316" y="192" type="line" smooth="yes"/>
      <point x="358" y="220"/>
      <point x="316" y="275"/>
      <point x="280" y="253" type="curve" smooth="yes"/>
      <point x="118" y="155" type="line" smooth="yes"/>
      <point x="76" y="129"/>
      <point x="113" y="58"/>
    </contour>
    <contour>
      <point x="516" y="189" type="curve" smooth="yes"/>
      <point x="512" y="193" type="line" smooth="yes"/>
      <point x="487" y="218"/>
      <point x="441" y="155"/>
      <point x="474" y="135" type="curve" smooth="yes"/>
      <point x="479" y="132" type="line" smooth="yes"/>
      <point x="512" y="112"/>
      <point x="545" y="160"/>
    </contour>
    <contour>
      <point x="108" y="439" type="curve" smooth="yes"/>
      <point x="113" y="436" type="line" smooth="yes"/>
      <point x="138" y="421"/>
      <point x="160" y="462"/>
      <point x="133" y="473" type="curve" smooth="yes"/>
      <point x="128" y="475" type="line" smooth="yes"/>
      <point x="103" y="485"/>
      <point x="84" y="453"/>
    </contour>
  </outline>
</glyph>
<glyph name="acutecomb.case" format="2">
  <anchor x="110" y="700" name="_top"/>
  <anchor x="361" y="550" name="bottom"/>
  <anchor x="356" y="627" name="top"/>
  <outline>
    <contour>
      <point x="138" y="757" type="curve" smooth="yes"/>
      <point x="185" y="791"/>
      <point x="246" y="836"/>
      <point x="296" y="875" type="curve" smooth="yes"/>
      <point x="330" y="902"/>
      <point x="336" y="941"/>
      <point x="312" y="965" type="curve" smooth="yes"/>
      <point x="291" y="986"/>
      <point x="255" y="984"/>
      <point x="230" y="959" type="curve" smooth="yes"/>
      <point x="187" y="914"/>
      <point x="121" y="843"/>
      <point x="90" y="809" type="curve" smooth="yes"/>
      <point x="74" y="791"/>
      <point x="75" y="769"/>
      <point x="88" y="756" type="curve" smooth="yes"/>
      <point x="102" y="743"/>
      <point x="119" y="744"/>
    </contour>
  </outline>
</glyph>
<glyph name="cedillacomb.case" format="2">
  <anchor x="159" y="0" name="_cedilla"/>
  <anchor x="361" y="550" name="bottom"/>
  <anchor x="356" y="627" name="top"/>
  <outline>
    <contour>
      <point x="243" y="39" type="curve"/>
      <point x="157" y="39" type="line"/>
      <point x="106" y="-16"/>
      <point x="92" y="-54"/>
      <point x="92" y="-79" type="curve" smooth="yes"/>
      <point x="92" y="-116"/>
      <point x="123" y="-141"/>
      <point x="185" y="-148" type="curve" smooth="yes"/>
      <point x="250" y="-156"/>
      <point x="272" y="-167"/>
      <point x="272" y="-189" type="curve" smooth="yes"/>
      <point x="272" y="-219"/>
      <point x="244" y="-233"/>
      <point x="181" y="-233" type="curve" smooth="yes"/>
      <point x="101" y="-233"/>
      <point x="87" y="-206"/>
      <point x="50" y="-206" type="curve" smooth="yes"/>
      <point x="33" y="-206"/>
      <point x="19" y="-219"/>
      <point x="19" y="-239" type="curve" smooth="yes"/>
      <point x="19" y="-278"/>
      <point x="93" y="-308"/>
      <point x="180" y="-308" type="curve" smooth="yes"/>
      <point x="292" y="-308"/>
      <point x="351" y="-267"/>
      <point x="351" y="-188" type="curve" smooth="yes"/>
      <point x="351" y="-124"/>
      <point x="313" y="-97"/>
      <point x="232" y="-86" type="curve" smooth="yes"/>
      <point x="184" y="-79"/>
      <point x="174" y="-72"/>
      <point x="174" y="-56" type="curve" smooth="yes"/>
      <point x="174" y="-41"/>
      <point x="188" y="-13"/>
    </contour>
  </outline>
</glyph>
<glyph name="circumflexcomb.case.alt1" format="2">
  <anchor x="212" y="700" name="_top"/>
  <anchor x="361" y="550" name="bottom"/>
  <anchor x="356" y="627" name="top"/>
  <outline>
    <contour>
      <point x="95" y="753" type="curve" smooth="yes"/>
      <point x="124" y="775"/>
      <point x="150" y="799"/>
      <point x="182" y="821" type="curve" smooth="yes"/>
      <point x="197" y="832"/>
      <point x="215" y="828"/>
      <point x="228" y="820" type="curve" smooth="yes"/>
      <point x="248" y="808"/>
      <point x="292" y="776"/>
      <point x="329" y="751" type="curve" smooth="yes"/>
      <point x="374" y="722"/>
      <point x="426" y="770"/>
      <point x="377" y="815" type="curve" smooth="yes"/>
      <point x="342" y="847"/>
      <point x="290" y="888"/>
      <point x="245" y="920" type="curve" smooth="yes"/>
      <point x="214" y="942"/>
      <point x="166" y="937"/>
      <point x="134" y="903" type="curve" smooth="yes"/>
      <point x="113" y="881"/>
      <point x="73" y="836"/>
      <point x="43" y="800" type="curve" smooth="yes"/>
      <point x="13" y="764"/>
      <point x="51" y="719"/>
    </contour>
  </outline>
</glyph>
<glyph name="dieresiscomb.case" format="2">
  <anchor x="206" y="700" name="_top"/>
  <anchor x="361" y="550" name="bottom"/>
  <anchor x="356" y="627" name="top"/>
  <outline>
    <contour>
      <point x="120" y="767" type="curve" smooth="yes"/>
      <point x="154" y="767"/>
      <point x="182" y="795"/>
      <point x="182" y="831" type="curve" smooth="yes"/>
      <point x="182" y="865"/>
      <point x="154" y="893"/>
      <point x="120" y="893" type="curve" smooth="yes"/>
      <point x="84" y="893"/>
      <point x="56" y="865"/>
      <point x="56" y="831" type="curve" smooth="yes"/>
      <point x="56" y="795"/>
      <point x="84" y="767"/>
    </contour>
    <contour>
      <point x="285" y="750" type="curve" smooth="yes"/>
      <point x="321" y="750"/>
      <point x="350" y="778"/>
      <point x="350" y="816" type="curve" smooth="yes"/>
      <point x="350" y="852"/>
      <point x="321" y="881"/>
      <point x="285" y="881" type="curve" smooth="yes"/>
      <point x="247" y="881"/>
      <point x="219" y="852"/>
      <point x="219" y="816" type="curve" smooth="yes"/>
      <point x="219" y="778"/>
      <point x="247" y="750"/>
    </contour>
  </outline>
</glyph>
<glyph name="dotaccentcomb.case" format="2">
  <anchor x="110" y="700" name="_top"/>
  <anchor x="361" y="550" name="bottom"/>
  <anchor x="356" y="627" name="top"/>
  <outline>
    <contour>
      <point x="110" y="755" type="curve" smooth="yes"/>
      <point x="145" y="755"/>
      <point x="174" y="784"/>
      <point x="174" y="822" type="curve" smooth="yes"/>
      <point x="174" y="857"/>
      <point x="145" y="885"/>
      <point x="110" y="885" type="curve" smooth="yes"/>
      <point x="73" y="885"/>
      <point x="44" y="857"/>
      <point x="44" y="822" type="curve" smooth="yes"/>
      <point x="44" y="784"/>
      <point x="73" y="755"/>
    </contour>
  </outline>
</glyph>
<glyph name="gravecomb.case" format="2">
  <anchor x="219" y="703" name="_top"/>
  <anchor x="361" y="550" name="bottom"/>
  <anchor x="356" y="627" name="top"/>
  <outline>
    <contour>
      <point x="169" y="776" type="curve" smooth="yes"/>
      <point x="191" y="754"/>
      <point x="215" y="750"/>
      <point x="227" y="763" type="curve" smooth="yes"/>
      <point x="237" y="774"/>
      <point x="240" y="790"/>
      <point x="229" y="817" type="curve" smooth="yes"/>
      <point x="214" y="854"/>
      <point x="195" y="897"/>
      <point x="176" y="939" type="curve" smooth="yes"/>
      <point x="157" y="981"/>
      <point x="108" y="987"/>
      <point x="80" y="959" type="curve" smooth="yes"/>
      <point x="59" y="938"/>
      <point x="54" y="906"/>
      <point x="79" y="874" type="curve" smooth="yes"/>
      <point x="98" y="850"/>
      <point x="140" y="805"/>
    </contour>
  </outline>
</glyph>
<glyph name="macroncomb.case" format="2">
  <anchor x="185" y="700" name="_top"/>
  <anchor x="361" y="550" name="bottom"/>
  <anchor x="356" y="627" name="top"/>
  <outline>
    <contour>
      <point x="94" y="856" type="curve" smooth="yes"/>
      <point x="53" y="858"/>
      <point x="24" y="838"/>
      <point x="24" y="803" type="curve" smooth="yes"/>
      <point x="24" y="767"/>
      <point x="52" y="749"/>
      <point x="95" y="750" type="curve" smooth="yes"/>
      <point x="157" y="751"/>
      <point x="247" y="756"/>
      <point x="316" y="761" type="curve" smooth="yes"/>
      <point x="352" y="764"/>
      <point x="370" y="776"/>
      <point x="370" y="800" type="curve" smooth="yes"/>
      <point x="370" y="825"/>
      <point x="351" y="838"/>
      <point x="319" y="841" type="curve" smooth="yes"/>
      <point x="244" y="848"/>
      <point x="160" y="854"/>
    </contour>
  </outline>
</glyph>
<glyph name="spacer_block" format="2">
  <advance width="216"/>
  <outline>
    <contour>
      <point x="0" y="763" type="line"/>
      <point x="0" y="-95" type="line"/>
      <point x="216" y="-95" type="line"/>
      <point x="216" y="763" type="line"/>
    </contour>
  </outline>
</glyph>
<glyph name="tildecomb.case" format="2">
  <anchor x="201" y="700" name="_top"/>
  <anchor x="361" y="550" name="bottom"/>
  <anchor x="356" y="627" name="top"/>
  <outline>
    <contour>
      <point x="22" y="809" type="curve" smooth="yes"/>
      <point x="7" y="783"/>
      <point x="12" y="751"/>
      <point x="31" y="741" type="curve" smooth="yes"/>
      <point x="52" y="730"/>
      <point x="80" y="737"/>
      <point x="92" y="757" type="curve" smooth="yes"/>
      <point x="114" y="793"/>
      <point x="133" y="807"/>
      <point x="155" y="807" type="curve" smooth="yes"/>
      <point x="201" y="807"/>
      <point x="222" y="735"/>
      <point x="299" y="735" type="curve" smooth="yes"/>
      <point x="340" y="735"/>
      <point x="377" y="765"/>
      <point x="386" y="820" type="curve" smooth="yes"/>
      <point x="395" y="874"/>
      <point x="387" y="893"/>
      <point x="363" y="898" type="curve" smooth="yes"/>
      <point x="339" y="902"/>
      <point x="323" y="887"/>
      <point x="318" y="864" type="curve" smooth="yes"/>
      <point x="312" y="835"/>
      <point x="302" y="827"/>
      <point x="285" y="827" type="curve" smooth="yes"/>
      <point x="248" y="827"/>
      <point x="217" y="887"/>
      <point x="152" y="887" type="curve" smooth="yes"/>
      <point x="93" y="887"/>
      <point x="52" y="857"/>
    </contour>
  </outline>
</glyph>
